<?xml version="1.0" encoding="utf-8"?>
<!-- Generator: Adobe Illustrator 17.0.2, SVG Export Plug-In . SVG Version: 6.00 Build 0)  -->
<!DOCTYPE svg PUBLIC "-//W3C//DTD SVG 1.1//EN" "http://www.w3.org/Graphics/SVG/1.1/DTD/svg11.dtd">
<svg version="1.1" id="Layer_1" xmlns="http://www.w3.org/2000/svg" xmlns:xlink="http://www.w3.org/1999/xlink" x="0px" y="0px"
	 width="134px" height="34px" viewBox="0 0 134 34" enable-background="new 0 0 134 34" xml:space="preserve">
<g>
	<path d="M59.078,27.458c-0.212,0.371-0.451,0.796-0.956,0.796c-0.451,0-0.663-0.318-0.663-1.539v-4.829
		c0-4.697-2.68-5.625-4.458-5.625c-2.175,0-3.502,1.299-3.502,2.281c0,0.102,0.016,0.19,0.045,0.268
		c0.127,0.597,0.657,1.045,1.292,1.045c0.73,0,1.322-0.592,1.322-1.322c0-0.059-0.005-0.117-0.013-0.175
		c-0.019-0.252-0.072-0.72-0.072-0.851c0-0.611,0.185-0.956,1.061-0.956c1.592,0,1.778,1.168,1.778,3.025
		c0,0.116-0.005,0.456-0.005,0.456s-1.316,0.108-2.484,0.581c-1.267,0.513-1.976,0.877-2.836,1.62
		c-1.029,0.89-1.327,1.979-1.327,3.195c0,1.72,1.338,3.182,3.423,3.379c0.204,0.019,0.415,0.029,0.63,0.029
		c1.616,0,2.352-0.636,2.918-1.38c0.264,0.386,0.832,1.167,2.387,1.167c1.168,0,1.406-0.424,1.751-1.034L59.078,27.458z
		 M54.829,27.428c-0.43,0.531-1.079,1.021-2.182,1.021c-0.824,0-2.025-0.929-2.025-3.013c0-2.083,0.45-3.785,1.902-4.463
		c1.386-0.647,2.386-0.636,2.386-0.636s-0.155,5.998,0.068,6.891C54.932,27.295,54.883,27.362,54.829,27.428z"/>
	<path d="M4.5,24.486h0.212c0.318,1.274,0.584,2.122,1.486,2.972c0.743,0.769,1.566,1.088,2.6,1.088
		c1.911,0,2.813-1.061,2.813-2.176c0-1.193-0.929-1.644-3.131-2.706c-1.698-0.822-3.21-1.512-3.21-3.9
		c0-2.255,1.804-3.502,3.555-3.502c0.743,0,1.3,0.212,1.698,0.371c0.557,0.239,0.716,0.292,0.929,0.292
		c0.238,0,0.345-0.08,0.424-0.159h0.212v2.786h-0.212c-0.424-2.415-1.91-2.999-2.998-2.999c-0.716,0-2.149,0.318-2.149,1.831
		c0,1.247,0.769,1.884,3.104,3.078c2.308,1.167,3.449,1.751,3.449,3.449c0,2.096-2.043,3.927-4.59,3.927
		c-1.459,0-2.812-0.823-3.396-0.823c-0.265,0-0.478,0.106-0.584,0.318H4.5V24.486z"/>
	<path d="M15.981,11.989c0.214,0,1.82,0,2.653,0v4.776h2.653v0.292h-2.653v10.188c0,0.982,0.239,1.167,0.77,1.167
		c0.398,0,1.379-0.185,1.857-1.724l0.292,0.079c-0.398,1.539-1.539,2.07-2.759,2.07c-2.017,0-2.813-1.168-2.813-3.741v-8.04h-2.043
		v-0.292h2.043V11.989z"/>
	<path d="M32.658,26.025c-0.743,1.804-2.68,2.813-4.59,2.813c-3.157,0-5.864-2.256-5.864-5.97c0-3.688,2.759-6.606,5.678-6.606
		c2.202,0,4.829,1.937,4.856,5.625h-7.562v0.956c0,2.919,0,5.704,2.892,5.704c1.247,0,3.29-0.504,4.325-2.627L32.658,26.025z
		 M30.217,21.594c-0.026-3.822-0.451-5.042-2.441-5.042c-2.414,0-2.574,1.937-2.6,5.042H30.217z"/>
	<path d="M35.3,3.659h-1.91V3.366h4.563v24.675h1.91v0.292H33.39v-0.292h1.91V3.659z"/>
	<path d="M42.933,3.659h-1.91V3.366h4.564v24.675h1.91v0.292h-6.474v-0.292h1.91V3.659z"/>
	<path d="M123.928,11.989c0.213,0,1.82,0,2.654,0v4.776h2.653v0.292h-2.653v10.188c0,0.982,0.238,1.167,0.769,1.167
		c0.398,0,1.38-0.185,1.858-1.724l0.291,0.079c-0.398,1.539-1.539,2.07-2.76,2.07c-2.016,0-2.812-1.168-2.812-3.741v-8.04h-2.043
		v-0.292h2.043V11.989z"/>
	<path d="M107.194,28.042h1.911v0.292h-4.564v-1.459c-0.291,0.504-0.982,1.751-2.786,1.751c-2.522,0-5.466-2.573-5.466-6.182
		c0-3.688,3.105-6.182,5.518-6.182c1.724,0,2.414,1.087,2.733,1.565V3.734h-1.911V3.442h1.911h2.653V28.042z M103.745,17.296
		c-0.53-0.478-1.194-0.743-1.91-0.743c-2.441,0-2.574,2.521-2.574,5.493c0,4.298,0.238,6.288,2.52,6.288
		c0.398,0,1.592-0.053,2.388-1.406c0.505-0.822,0.584-2.175,0.584-4.537C104.753,19.1,104.726,18.198,103.745,17.296z"/>
	<path d="M115.354,16.261c2.654,0,5.838,2.547,5.838,6.288c0,3.741-3.184,6.289-5.838,6.289c-2.654,0-5.864-2.574-5.864-6.289
		S112.779,16.261,115.354,16.261z M115.354,28.545c2.787,0,2.866-2.308,2.866-5.996c0-3.688,0-5.996-2.866-5.996
		c-2.733,0-2.892,2.203-2.892,5.996C112.462,26.344,112.541,28.545,115.354,28.545z"/>
	<path fill="#65CBC9" d="M90.597,23.294H90.28c0.104,1.969-1.064,3.362-1.964,4.036c-1.403,1.049-2.568,0.645-3.657-0.357
		c-0.625-0.575-3.905-4.819-4.676-5.82c0.428-0.719,0.874-1.514,1.34-2.402c1.005-1.916,2.102-3.706,3.421-4.731
		c0.002-0.001,0.004-0.002,0.006-0.003c0.003-0.002,0.006-0.003,0.009-0.005c-0.109,0.137-0.211,0.282-0.299,0.439
		c-0.908,1.614-0.335,3.659,1.279,4.567c1.614,0.908,3.659,0.335,4.567-1.279c0.876-1.558,0.371-3.513-1.116-4.464l0.016-0.002
		c-0.035-0.019-0.07-0.036-0.105-0.054c-0.025-0.015-0.049-0.032-0.074-0.047c-0.171-0.096-0.347-0.173-0.525-0.236l0.005-0.014
		c-3.931-1.327-6.392,3.367-7.575,5.623c-0.43,0.82-0.842,1.558-1.238,2.229l-1.507-1.979l-4.549-6.399c0,0-1.269-1.802-2.264-3.846
		c-0.076-0.157-0.126-0.322-0.183-0.479c-0.624-1.746-0.672-3.259,1.178-4.127c0.439-0.206,1.022-0.393,1.676-0.458
		c1.895-0.081,2.439,0.434,3.228,1.018c1.371,1.014,2.368,2.777,2.538,4.932h0.397V3.246h-0.397
		c-0.117,0.506-0.461,1.531-1.354,1.479c-0.229-0.013-0.42-0.113-0.626-0.254c-0.484-0.442-1.288-0.941-1.891-1.119
		c-0.339-0.1-0.691-0.156-1.046-0.179c-0.228-0.025-0.413-0.024-0.558-0.006l-0.001,0.001c-0.718,0.031-1.437,0.204-2.09,0.51
		c-2.859,1.341-4.351,4.532-2.773,7.895c0.123,0.262,1.231,2.041,1.709,2.797c-2.841,1.595-6.848,4.358-6.848,7.977
		c0,3.464,3.035,6.499,6.499,6.499c2,0,3.848-1.166,5.344-2.618c0.572-0.542,1.249-1.299,2.021-2.35
		c0.699,0.954,1.521,1.947,2.294,2.753c0.356,0.422,0.74,0.78,1.144,1.075c0.003,0.003,0.007,0.006,0.011,0.009l0.001-0.001
		c2.128,1.546,4.809,1.373,6.846-0.151c1.313-0.982,2.193-2.572,2.11-4.198C90.597,23.297,90.603,23.344,90.597,23.294z
		 M77.014,24.665c-1.184,1.353-2.688,2.525-4.525,2.521c-3.491-0.006-6.369-3.75-6.042-6.909c0.3-2.903,2.713-4.152,4.931-5.592
		c2.059,2.836,4.303,6.085,6.517,8.845C77.586,23.956,77.292,24.333,77.014,24.665z"/>
</g>
</svg>
