<?xml version="1.0" standalone="no"?>
<!DOCTYPE svg PUBLIC "-//W3C//DTD SVG 1.1//EN" "http://www.w3.org/Graphics/SVG/1.1/DTD/svg11.dtd" >
<svg xmlns="http://www.w3.org/2000/svg">
<metadata>Generated by IcoMoon</metadata>
<defs>
<font id="sdicons" horiz-adv-x="1024">
<font-face units-per-em="1024" ascent="960" descent="-64" />
<missing-glyph horiz-adv-x="1024" />
<glyph unicode="&#x20;" d="" horiz-adv-x="512" />
<glyph unicode="&#xe000;" d="M293.391 417.704h37.098v-184.144h35.81v184.144h37.040v31.393h-109.948zM513.375 570.748c4.857 0 8.719 1.287 11.557 3.95 2.896 2.721 4.301 6.407 4.301 11.059l-0.001 95.437c0 3.833-1.492 6.963-4.389 9.275-2.896 2.37-6.729 3.569-11.469 3.569-4.359 0-7.899-1.2-10.679-3.569-2.692-2.311-4.037-5.442-4.037-9.275v-95.437c0-4.769 1.258-8.455 3.803-11.059 2.517-2.662 6.174-3.95 10.914-3.95zM592.399 394.474c-4.974 0-9.83-1.258-14.687-3.774-4.798-2.516-9.362-6.232-13.605-11.088v69.485h-32.154v-215.508h32.154v12.171c4.125-4.886 8.689-8.485 13.546-10.796 4.857-2.341 10.386-3.452 16.618-3.452 9.362 0 16.677 2.984 21.592 8.982 5.032 6.056 7.548 14.629 7.548 25.922v88.269c0 13.019-2.692 22.908-7.987 29.667-5.296 6.728-13.019 10.122-23.025 10.122zM590.643 270.746c0-5.091-0.965-8.689-2.75-10.971-1.872-2.282-4.681-3.365-8.631-3.365-2.692 0-5.149 0.614-7.665 1.726-2.399 1.083-4.974 3.043-7.49 5.588v99.065c2.107 2.224 4.33 3.833 6.524 4.857 2.224 1.112 4.447 1.609 6.729 1.609 4.272 0 7.607-1.404 9.889-4.125 2.224-2.809 3.365-6.846 3.365-12.259v-82.125zM476.277 271.711c-2.984-3.423-6.261-6.173-9.86-8.455-3.54-2.224-6.554-3.335-8.836-3.335-2.984 0-5.149 0.819-6.524 2.516-1.287 1.668-1.989 4.359-1.989 8.133v121.944h-31.773v-132.915c0-9.538 1.872-16.501 5.588-21.328 3.745-4.71 9.216-7.051 16.618-7.051 5.968 0 12.112 1.668 18.461 5.032 6.32 3.452 12.434 8.338 18.315 14.746v-17.437h31.803v158.983h-31.803v-120.833zM511.971 972.8c-282.741 0-511.971-229.23-511.971-512 0-282.8 229.23-511.971 511.971-511.971 282.77 0 512.029 229.171 512.029 511.971 0 282.77-229.259 512-512.029 512zM594.739 719.96h35.723v-134.32c0-4.184 0.79-7.139 2.282-8.982s3.95-2.809 7.256-2.809c2.633 0 5.998 1.229 10.006 3.686 4.008 2.516 7.724 5.617 11.030 9.509v132.916h35.84v-175.163h-35.84v19.339c-6.524-7.109-13.429-12.61-20.568-16.296s-14.043-5.617-20.743-5.617c-8.338 0-14.512 2.662-18.754 7.899-4.125 5.149-6.232 12.932-6.232 23.464v146.374zM461.824 679.907c0 13.517 4.827 24.342 14.453 32.446 9.626 7.958 22.587 12.025 38.824 12.025 14.833 0 26.946-4.272 36.454-12.727 9.421-8.426 14.16-19.397 14.16-32.797v-90.434c0-15.038-4.681-26.77-13.897-35.255-9.304-8.514-22.060-12.756-38.327-12.756-15.653 0-28.204 4.389-37.595 13.136-9.333 8.836-14.073 20.685-14.073 35.547l0.001 90.815zM364.368 782.219l26.185-94.881h2.516l24.927 94.881h40.931l-46.87-138.942v-98.48h-40.287v94.091l-47.982 143.331h40.58zM833.039 282.507c0-63.371-51.376-114.747-114.747-114.747h-398.716c-63.4 0-114.747 51.376-114.747 114.747v92.219c0 63.4 51.346 114.776 114.747 114.776h398.687c63.371 0 114.747-51.376 114.747-114.776l-0.001-92.219zM688.274 396.493c-14.16 0-25.776-4.301-34.757-13.019-9.040-8.66-13.546-19.953-13.546-33.616v-71.446c0-15.331 4.184-27.414 12.288-36.074 8.163-8.748 19.427-13.136 33.646-13.136 15.828 0 27.707 4.155 35.664 12.347 7.987 8.28 11.937 20.568 11.937 36.893v8.133h-32.622v-7.256c0-9.333-1.141-15.389-3.189-18.11-2.107-2.75-5.822-4.125-11.030-4.125-5.091 0-8.689 1.609-10.796 4.798-2.048 3.277-3.072 9.070-3.072 17.437v29.93h60.738v40.638c0 15.038-3.891 26.565-11.703 34.67-7.782 7.898-18.988 11.936-33.558 11.936zM700.913 333.941h-28.116v16.062c0 6.7 1.024 11.527 3.248 14.277 2.224 2.984 5.822 4.389 10.913 4.389 4.798 0 8.397-1.434 10.562-4.389 2.165-2.779 3.365-7.607 3.365-14.277l-0.001-16.062z" />
<glyph unicode="&#xe001;" d="M512 972.8c-282.741 0-512-229.288-512-512 0-282.77 229.259-512 512-512 282.8 0 512 229.23 512 512 0 282.712-229.2 512-512 512zM769.96 564.019c0.234-5.53 0.351-11.088 0.351-16.706 0-170.511-129.785-367.148-367.148-367.148-72.85 0-140.698 21.358-197.778 57.958 10.094-1.17 20.334-1.814 30.779-1.814 60.445 0 116.092 20.626 160.271 55.267-56.466 1.053-104.126 38.356-120.51 89.585 7.87-1.521 15.916-2.341 24.283-2.341 11.761 0 23.142 1.609 33.997 4.564-59.099 11.849-103.541 64.015-103.541 126.479 0 0.556 0 1.083 0.029 1.638 17.379-9.655 37.244-15.477 58.427-16.179-34.64 23.23-57.432 62.669-57.432 107.432 0 23.669 6.407 45.846 17.525 64.863 63.634-78.058 158.72-129.404 265.947-134.788-2.194 9.45-3.335 19.28-3.335 29.403 0 71.241 57.812 129.024 129.024 129.024 37.127 0 70.656-15.682 94.179-40.755 29.433 5.764 57.022 16.53 81.949 31.334-9.626-30.164-30.076-55.442-56.73-71.417 26.127 3.16 50.995 10.094 74.108 20.334-17.262-25.802-39.175-48.535-64.395-66.733z" />
<glyph unicode="&#xe002;" d="M121.958-51.2l246.426 246.477c59.597-33.178 128.154-52.019 201.114-52.019 229.069 0 414.771 185.702 414.771 414.771s-185.651 414.771-414.72 414.771c-229.069 0-414.771-185.702-414.771-414.771 0-106.65 40.243-203.827 106.394-277.35l-235.571-235.52 96.357-96.359zM569.549 280.986c-152.934 0-276.992 124.109-276.992 277.043s124.006 276.992 276.992 276.992c152.986 0 276.941-124.058 276.941-276.992 0-152.935-123.956-277.043-276.941-277.043z" />
<glyph unicode="&#xe003;" d="M1024 529.086h-443.772v443.714h-136.485v-443.714h-443.743v-136.543h443.743v-443.714h136.543v443.714h443.714z" />
<glyph unicode="&#xe004;" d="M512 972.8c-282.77 0-512-229.2-512-512 0-209.627 126.069-389.764 306.469-468.904-1.463 35.723-0.263 78.643 8.923 117.555 9.83 41.574 65.858 278.967 65.858 278.967s-16.355 32.68-16.355 81.042c0 75.893 43.973 132.535 98.743 132.535 46.548 0 69.076-34.962 69.076-76.859 0-46.811-29.842-116.824-45.202-181.687-12.844-54.331 27.209-98.626 80.779-98.626 97.017 0 162.406 124.577 162.406 272.208 0 112.201-75.6 196.198-213.109 196.198-155.297 0-252.050-115.8-252.050-245.175 0-44.588 13.166-76.098 33.763-100.44 9.45-11.205 10.796-15.711 7.344-28.555-2.458-9.392-8.075-32.095-10.416-41.048-3.423-12.99-13.926-17.642-25.629-12.844-71.563 29.199-104.887 107.549-104.887 195.643 0 145.408 122.675 319.839 365.948 319.839 195.496 0 324.169-141.488 324.169-293.332 0-200.821-111.704-350.881-276.275-350.881-55.325 0-107.286 29.872-125.074 63.839 0 0-29.725-117.965-36.016-140.756-10.854-39.497-32.124-78.965-51.551-109.685 46.051-13.661 94.676-21.034 145.086-21.034 282.8 0 512 229.23 512 512 0 282.8-229.2 512-512 512z" />
<glyph unicode="&#xe005;" d="M0 529.057h1024v-136.543h-1024z" />
<glyph unicode="&#xe006;" d="M732.043 681.721c-10.679 9.947-23.318 10.942-24.81 11.030h-390.993c-3.54-0.117-15.887-2.107-23.347-9.421-14.072-13.751-14.95-30.749-14.95-30.896v-29.257c0 0.146 0.878 17.145 14.95 30.896 2.019 1.96 4.33 3.482 6.729 4.71 0.527 0.293 1.024 0.41 1.521 0.644 2.048 0.936 4.125 1.785 6.056 2.341v-115.302h-29.257v-58.514h133.325c20.275 34.816 57.637 58.514 100.732 58.514s80.457-23.698 100.732-58.514l133.326-0.001v91.312c0 0-0.995-11.235-9.947-21.563-9.713-11.235-23.962-11.235-23.962-11.235h-48.479c0 0-12.434 0.029-23.025 9.743-11.615 10.591-11.615 23.054-11.615 23.054v50.878c0 0 0 11.264 12.493 23.084 10.181 9.596 22.148 10.269 22.148 10.269h43.593c1.492-0.088 14.102-1.083 24.81-11.030 10.152-9.479 12.902-20.304 13.722-25.454l0.293-47.748v74.021c-0.031 0.732-0.499 15.77-14.045 28.439zM365.714 546.465h-29.257v117.029h29.257v-117.029zM424.229 546.465h-29.257v117.029h29.257v-117.029zM512 970.693c-282.8 0-512-229.2-512-512 0-282.741 229.2-512 512-512s512 229.259 512 512c0 282.8-229.2 512-512 512zM775.314 517.208v-255.854c0 0-0.146-24.605-21.884-44.763-22.85-21.211-45.787-21.211-45.787-21.211l-391.403-0.001c0 0-24.898 0.41-44.822 19.661-22.732 21.972-22.732 46.314-22.732 46.314v391.080c0 0 0 28.584 23.728 51.785 17.935 17.584 43.827 17.788 43.827 17.788h391.402c0 0 24.079 0 44.412-18.9 23.962-22.382 23.289-49.825 23.289-49.825v-136.074zM512 502.579c40.346 0 73.143-32.827 73.143-73.143 0-40.346-32.797-73.143-73.143-73.143-40.316 0-73.143 32.797-73.143 73.143 0 40.317 32.827 73.143 73.143 73.143zM512 546.465c-64.541 0-117.029-52.487-117.029-117.029s52.487-117.029 117.029-117.029 117.029 52.487 117.029 117.029-52.488 117.029-117.029 117.029z" />
<glyph unicode="&#xe007;" d="M939.52 873.824c62.176-51.616 90.016-112.32 83.584-182.112-6.432-69.792-34.048-172.64-82.688-248.864-48.672-76.256-112-152.768-190.016-229.6-78.016-76.832-156.864-148.672-236.64-215.52v-1.76h-3.52v1.792c-80.928 66.848-160.096 138.688-237.504 215.52-77.408 76.8-140.48 153.344-189.12 229.6-48.672 76.224-76.256 179.072-82.688 248.864-6.432 69.76 21.376 130.464 83.584 182.112 45.728 38.72 91.744 55.712 138.112 51.008 46.336-4.704 88.864-19.072 127.552-43.104 38.72-24.064 72.416-51.904 101.152-83.584s48.96-55.712 60.672-72.128c11.712 16.416 31.68 40.48 59.808 72.128 28.16 31.68 61.856 59.52 101.152 83.584 39.296 24.032 81.824 38.4 127.552 43.104 45.76 4.672 92.096-12.32 139.008-51.040z" horiz-adv-x="1035" />
<glyph unicode="&#xe008;" d="M512 972.8c-282.741 0-512-229.288-512-512 0-282.77 229.259-512 512-512s512 229.23 512 512c0 282.712-229.259 512-512 512zM647.519 462.936h-88.62v-316.211h-131.423v316.211h-62.493v111.645h62.493v72.324c0 51.785 24.547 132.593 132.593 132.593l97.309-0.351v-108.427h-70.685c-11.498 0-27.794-5.793-27.794-30.398v-65.741h100.176l-11.556-111.645z" />
<glyph unicode="&#xe009;" d="M498.22 389.939c-37.010 0-63.751 26.214-64.834 27.385l-256.205 203.893 22.089 27.736 257.638-205.297c1.58-1.375 19.222-18.286 41.311-18.286 21.621 0 35.43 10.62 35.547 10.737l289.558 230.224 22.089-27.707-289.295-230.049c-2.046-1.725-23.55-18.636-57.898-18.636zM511.298 972.8c-282.8 0-512-229.2-512-511.971s229.2-512.029 512-512.029c282.829 0 512 229.259 512 512.029s-229.171 511.971-512 511.971zM833.156 243.712c0-25.541-20.685-46.226-46.197-46.226h-551.293c-25.512 0-46.197 20.685-46.197 46.226v375.691c0 25.512 20.685 46.197 46.197 46.197h551.263c25.512 0 46.197-20.685 46.197-46.197v-375.691zM824.642 196.052l-258.662 218.522c-14.775-10.064-41.223-24.635-70.071-24.635-27.794 0-51.346 13.429-65.243 23.669l-231.365-216.912-24.225 25.834 255.415 239.47 12.112-12.347c0.205-0.176 24.547-24.254 53.307-24.254 29.608 0 58.836 24.956 59.129 25.22l11.44 9.947 11.644-9.772 269.429-227.562-22.91-27.18z" />
<glyph unicode="&#xe00a;" d="M1321 533.191c0 244.848-295.507 443.625-660.5 443.625-364.761 0-660.5-198.777-660.5-443.625 0-245.012 295.739-443.724 660.5-443.724 80.812 0 157.628 10.205 229.161 27.345 136.823-140.323 330.514-152.246 330.514-152.246-82.992 70.476-124.934 150.33-146.664 221.597 150.395 82.036 247.489 206.771 247.489 347.028z" horiz-adv-x="1321" />
<glyph unicode="&#xe00b;" d="M609.5 972.78c-336.591 0-609.5-183.216-609.5-409.291 0-129.336 89.596-244.507 229.074-319.475-19.845-66.459-59.439-139.697-136.016-205.060 0 0 178.705 12.166 304.896 141.404 7.266-1.755 14.774-2.901 22.113-4.657-6.9 20.82-10.947 42.226-10.947 64.728 0 152.619 168.051 271.91 382.717 271.91 154.106 0 283.881-61.779 344.903-153.082 52.004 60.219 82.26 130.141 82.26 204.597 0 225.759-272.934 408.926-609.5 408.926zM1129.989 239.991c0 125.386-151.327 227.148-338.224 227.148-186.775 0-338.224-101.786-338.224-227.148 0-125.459 151.448-227.221 338.224-227.221 41.372 0 80.722 5.218 117.341 13.994 70.067-71.849 169.246-77.944 169.246-77.944-42.494 36.083-63.973 76.992-75.115 113.465 77.040 42.006 126.752 105.882 126.752 177.706z" horiz-adv-x="1219" />
<glyph unicode="&#xe00c;" d="M583.534 334.526c-36.103-81.715-45.963-110.592-45.963-136.163 0-9.45 1.638-20.568 6.027-38.385 3.833-13.897 4.359-18.344 4.359-24.986 0-21.124-12.61-35.577-30.106-35.577-19.163 0-31.744 13.897-31.744 35.021 0 23.347 10.942 57.227 37.215 113.371l36.688 77.268 33.909 73.377 10.942 23.347-139.557 0.556c-16.969 0-27.385-4.418-33.382-13.897-4.359-6.671-6.583-12.229-16.969-43.33l-11.498 2.779 26.829 98.948h201.962c7.109 0 8.777-1.112 8.777-4.447 0-2.224-1.112-5.003-6.583-15.565-2.75-4.418-12.054-24.459-21.328-45.583l-29.578-66.734zM295.995 810.247c22.089 0 39.995 18.198 39.995 40.638l-0.001 81.277c0 22.411-17.905 40.638-39.994 40.638s-39.995-18.227-39.995-40.638v-81.276c0-22.441 17.905-40.639 39.995-40.639zM728.005 810.247c22.089 0 40.024 18.198 40.024 40.638v81.277c0 22.411-17.934 40.638-40.024 40.638-22.118 0-39.965-18.227-39.965-40.638v-81.276c0-22.441 17.847-40.639 39.965-40.639zM79.989 875.257h863.993c44.208 0 79.96-36.367 79.96-81.247v-763.933c0-44.822-35.781-81.247-79.96-81.247l-863.993-0.001c-44.149-0.029-79.989 36.396-79.989 81.218v763.963c0 44.88 35.84 81.247 79.989 81.247zM64.015 550.181v-520.133h895.971l-0.001 520.133h-895.97z" />
<glyph unicode="&#xe00d;" d="M512.029 972.8c-282.799 0-512.029-229.23-512.029-512s229.23-512 512.029-512c282.77 0 512 229.23 512 512s-229.229 512-512 512zM414.076 133.968c-104.009-1.434-182.565 77.356-192.424 178.030-3.979 41.223 0 110.504 0 169.399 0 75.776-20.831 179.083 51.697 186.661 117.321 12.288 39.146-273.086 66.063-364.69 21.914-74.693 147.193-62.552 149.299 25.893 0.468 18.812-2.809 41.896-20.1 57.432-22.587 20.187-76.624 14.073-94.764 28.672-31.042 25.073-16.589 78.526 0 91.897 36.074 28.994 116.56-0.146 140.727-14.365 27.531-16.208 55.384-46.49 68.901-74.606 63.166-131.22-36.396-282.509-169.399-284.323zM669.608 375.164c-8.777 131.92-82.008 199.387-209.598 212.495v86.133c185.432-13.663 281.278-116.882 298.628-298.628h-89.030zM821.804 375.164c-16.443 225.719-138.357 345.966-361.794 364.661v89.001c276.539-24.956 428.178-174.811 450.794-453.661l-89-0.001z" />
<glyph unicode="&#xe00e;" d="M192 972.8v-1024l640 511.264-640 512.736z" />
<glyph unicode="&#xe00f;" d="M546.24 879.040c-124.992 124.992-327.488 124.992-452.512 0-124.992-124.928-124.992-327.616 0-452.48 0.032 0 226.272-221.76 226.272-477.76 0 256 226.24 477.76 226.24 477.76 125.024 124.864 125.024 327.552 0 452.48zM320 524.8c-70.752 0-128 57.248-128 128s57.248 128 128 128 128-57.248 128-128-57.248-128-128-128z" horiz-adv-x="640" />
<glyph unicode="&#xe010;" d="M512-51.2c-282.752 0-512 229.248-512 512s229.248 512 512 512c282.752 0 512-229.248 512-512 0-282.752-229.248-512-512-512zM768.32 614.592l-102.592 102.528-153.728-153.792-153.792 153.792-102.528-102.528 153.792-153.792-153.792-153.728 102.528-102.592 153.792 153.792 153.728-153.792 102.592 102.592-153.792 153.728 153.792 153.792z" />
<glyph unicode="&#xe011;" d="M256 716.8v-128h512v128h-512zM256 396.8h512v128h-512v-128zM256 204.8h512v128h-512v-128z" />
<glyph unicode="&#xe012;" d="M256 492.8h224v224h-224v-224zM544 716.8v-224h224v224h-224zM544 204.8h224v224h-224v-224zM256 204.8h224v224h-224v-224z" />
<glyph unicode="&#xe013;" d="M256 588.8h128v128h-128v-128zM448 588.8h128v128h-128v-128zM640 716.8v-128h128v128h-128zM256 396.8h128v128h-128v-128zM448 396.8h128v128h-128v-128zM640 396.8h128v128h-128v-128zM256 204.8h128v128h-128v-128zM448 204.8h128v128h-128v-128zM640 204.8h128v128h-128v-128z" />
<glyph unicode="&#xe014;" d="M256 588.8h128v128h-128v-128zM256 396.8h128v128h-128v-128zM256 204.8h128v128h-128v-128zM448 716.8v-128h320v128h-320zM448 396.8h320v128h-320v-128zM448 204.8h320v128h-320v-128z" />
<glyph unicode="&#xe015;" d="M927.936 699.808l-68.288 68.288c-12.608 12.576-32.96 12.576-45.536 0l-409.44-409.44-194.752 196.16c-12.576 12.576-32.928 12.576-45.536 0l-68.288-68.288c-12.576-12.608-12.576-32.96 0-45.536l285.568-287.488c12.576-12.576 32.96-12.576 45.536 0l500.736 500.768c12.576 12.544 12.576 32.96 0 45.536z" />
<glyph unicode="&#xe016;" d="M512-51.2c-282.752 0-512 229.248-512 512s229.248 512 512 512c282.752 0 512-229.248 512-512 0-282.752-229.248-512-512-512zM768 524.8h-512v-128h512v128z" />
<glyph unicode="&#xe017;" d="M864 844.8l-480-480-224 224-160-160 384-384 640 640z" />
<glyph unicode="&#xe018;" d="M1014.662 150.14c-0.004 0.004-0.008 0.008-0.012 0.010l-310.644 310.65 310.644 310.65c0.004 0.004 0.008 0.006 0.012 0.010 3.344 3.346 5.762 7.254 7.312 11.416 4.246 11.376 1.824 24.682-7.324 33.83l-146.746 146.746c-9.148 9.146-22.45 11.566-33.828 7.32-4.16-1.55-8.070-3.968-11.418-7.31 0-0.004-0.004-0.006-0.008-0.010l-310.648-310.652-310.648 310.65c-0.004 0.004-0.006 0.006-0.010 0.010-3.346 3.342-7.254 5.76-11.414 7.31-11.38 4.248-24.682 1.826-33.83-7.32l-146.748-146.748c-9.148-9.148-11.568-22.452-7.322-33.828 1.552-4.16 3.97-8.072 7.312-11.416 0.004-0.002 0.006-0.006 0.010-0.010l310.65-310.648-310.65-310.652c-0.002-0.004-0.006-0.006-0.008-0.010-3.342-3.346-5.76-7.254-7.314-11.414-4.248-11.376-1.826-24.682 7.322-33.83l146.748-146.746c9.15-9.148 22.452-11.568 33.83-7.322 4.16 1.552 8.070 3.97 11.416 7.312 0.002 0.004 0.006 0.006 0.010 0.010l310.648 310.65 310.648-310.65c0.004-0.002 0.008-0.006 0.012-0.008 3.348-3.344 7.254-5.762 11.414-7.314 11.378-4.246 24.684-1.826 33.828 7.322l146.746 146.748c9.148 9.148 11.57 22.454 7.324 33.83-1.552 4.16-3.97 8.068-7.314 11.414z" />
<glyph unicode="&#xe019;" d="M155.034 972.8h713.933c85.657 0 155.033-68.762 155.033-153.6v-716.8c0-84.838-69.376-153.6-154.982-153.6h-713.984c-85.607 0-155.034 68.813-155.034 153.6v716.8c0 84.838 69.427 153.6 155.034 153.6zM716.8 512h-409.6v-102.4h409.6v102.4z" />
<glyph unicode="&#xe01a;" d="M512.032 804.032c222.048 0 402.080-133.984 402.080-299.264 0-99.328-65.024-187.328-165.12-241.76 0.288-0.864 79.744-145.44 79.744-145.44s-242.656 92.544-243.328 92.928c-23.808-3.296-48.352-4.96-73.408-4.96-222.048 0-402.080 133.984-402.080 299.232 0.032 165.28 180.064 299.264 402.112 299.264zM705.056 472.8c17.664 0 32 14.336 32 32 0 17.696-14.336 32-32 32s-32-14.304-32-32c0-17.664 14.304-32 32-32zM577.728 471.456c17.664 0 32 14.336 32 32 0 17.696-14.336 32-32 32-17.696 0-32-14.304-32-32 0-17.664 14.304-32 32-32zM448.416 471.456c17.664 0 32 14.336 32 32 0 17.696-14.336 32-32 32-17.696 0-32-14.304-32-32 0-17.664 14.304-32 32-32zM320.416 471.456c17.664 0 32 14.336 32 32 0 17.696-14.336 32-32 32-17.696 0-32-14.304-32-32 0-17.664 14.304-32 32-32z" />
<glyph unicode="&#xe01b;" d="M155.034 972.8h713.933c85.657 0 155.033-68.762 155.033-153.6v-716.8c0-84.838-69.376-153.6-154.982-153.6h-713.984c-85.607 0-155.034 68.813-155.034 153.6v716.8c0 84.838 69.427 153.6 155.034 153.6zM716.8 512h-153.6v153.6h-102.4v-153.6h-153.6v-102.4h153.6v-153.6h102.4v153.6h153.6z" />
<glyph unicode="&#xe01c;" d="M512-51.2c-282.313 0-512 229.687-512 512s229.687 512 512 512c282.313 0 512-229.687 512-512 0-282.313-229.687-512-512-512zM512 889.386c-236.326 0-428.586-192.26-428.586-428.586s192.26-428.586 428.586-428.586 428.586 192.26 428.586 428.586-192.26 428.586-428.586 428.586zM419.244 752.178v-582.756l291.378 291.378z" />
<glyph unicode="&#xe01d;" d="M512 460.8l-512-512v1024l512-512z" horiz-adv-x="512" />
<glyph unicode="&#xe01e;" d="M341 972.8c-188.485 0-341.334-156.74-341.334-350.106 0-193.331 341.334-673.894 341.334-673.894s341.333 480.563 341.333 673.894c-0.033 193.366-152.848 350.106-341.333 350.106zM341 467.319c-83.661 0-151.484 69.564-151.484 155.341 0 85.879 67.823 155.409 151.484 155.409 83.729 0 151.518-69.53 151.518-155.409-0.035-85.777-67.823-155.341-151.518-155.341z" horiz-adv-x="682" />
<glyph unicode="&#xe01f;" d="M1024 460.8c0-282.752-229.248-512-512-512-282.752 0-512 229.248-512 512 0 282.752 229.248 512 512 512 282.752 0 512-229.248 512-512zM625.664 274.624c-51.392-93.568-69.632-117.568-94.72-117.568-10.304 0-17.152 8-17.152 21.696 0 7.936 1.152 18.24 3.456 27.392l78.72 369.92c-47.936-8.064-92.416-12.608-131.264-12.608h-89.024l-5.696-28.544h79.936l-51.392-240.896c-6.848-29.696-10.24-63.936-10.24-84.48 0-67.392 33.088-102.72 95.872-102.72 68.48 0 109.632 37.696 169.024 153.024l-27.52 14.784zM549.248 685.632c41.088 0 75.328 34.24 75.328 75.328 0 42.24-33.152 76.48-76.48 76.48-41.088 0-75.328-34.24-75.328-75.328-0.064-42.24 34.176-76.48 76.48-76.48z" />
<glyph unicode="&#xe020;" d="M976.662 165.683c2.048 6.495 3.452 13.283 3.452 20.48v521.011l-340.056-257.317 336.603-284.175zM430.607 463.462c6.992-6.7 30.398-27.18 58.544-27.765h1.112c5.354 0 10.591 0.468 16.911 1.668 9.889 2.077 20.539 5.91 31.539 11.381 0.322 0.263 1.785 1.141 1.785 1.141l427.037 325.018c-12.464 17.701-33.002 29.345-56.261 29.345h-798.603c-23.172 0-43.564-11.557-56.027-29.111l373.965-311.676zM593.072 410.829c-6.203-4.067-13.926-8.543-22.469-13.107-5.032-3.277-24.869-14.892-56.027-19.719-7.958-1.492-16.53-2.984-25.483-2.984-39.995 0-74.313 18.139-96.841 34.114l-304.333-286.661c7.753-3.043 15.945-5.12 24.781-5.12h798.603c8.455 0 16.472 1.726 23.991 4.535l-342.221 288.944zM43.886 707.701v-521.538c0-6.261 1.375-12.171 2.955-17.935l303.484 284.028-306.439 255.444z" />
<glyph unicode="&#xe021;" d="M512-51.2c-282.752 0-512 229.248-512 512s229.248 512 512 512c282.752 0 512-229.248 512-512 0-282.752-229.248-512-512-512zM768 524.8h-192v192h-128v-192h-192v-128h192v-192h128v192h192v128z" />
<glyph unicode="&#xe022;" d="M1024 332.8h-384v-384h-256v384h-384v256h384v384h256v-384h384v-256z" />
<glyph unicode="&#xe023;" d="M0 588.8h1024v-256h-1024v256z" />
<glyph unicode="&#xe024;" d="M516.128 972.8l123.872-122.88-392.256-389.12 392.256-389.152-123.872-122.848-516.128 512z" horiz-adv-x="640" />
<glyph unicode="&#xe025;" d="M123.872 972.8l-123.872-122.88 392.256-389.12-392.256-389.152 123.872-122.848 516.128 512z" horiz-adv-x="640" />
<glyph unicode="&#xe026;" d="M1018.675 164.181h-12.322c4.062-76.356-41.233-130.389-76.117-156.535-54.443-40.687-99.601-24.986-141.858 13.858-24.201 22.255-151.484 186.914-181.316 225.69 16.589 27.887 33.894 58.709 51.951 93.15 38.98 74.274 81.545 143.701 132.676 183.467 0.068 0.034 0.171 0.068 0.239 0.102 0.068 0.034 0.205 0.102 0.341 0.171-4.198-5.325-8.192-10.923-11.605-17.033-35.191-62.601-13.005-141.926 49.596-177.084 62.601-35.226 141.892-13.005 177.084 49.596 33.963 60.416 14.37 136.226-43.247 173.124l0.614 0.068c-1.331 0.751-2.731 1.399-4.062 2.116-0.99 0.614-1.911 1.263-2.901 1.809-6.622 3.721-13.449 6.724-20.378 9.182l0.205 0.546c-152.474 51.473-247.945-130.594-293.786-218.078-16.657-31.812-32.666-60.45-47.991-86.46l-58.47 76.732-176.401 248.183c0 0-49.22 69.871-87.791 149.163-3.005 6.111-4.95 12.494-7.169 18.603-24.201 67.721-26.044 126.43 45.704 160.052 17.033 7.987 39.629 15.223 65.024 17.783 73.455 3.14 94.583-16.828 125.167-39.492 53.214-39.322 91.853-107.691 98.475-191.249h15.394v240.025h-15.394c-4.54-19.661-17.852-59.392-52.531-57.378-8.875 0.512-16.282 4.369-24.269 9.865-18.773 17.135-49.937 36.489-73.318 43.383-13.176 3.891-26.829 6.076-40.619 6.963-8.806 0.956-16.009 0.922-21.641 0.205l-0.034-0.034c-27.853-1.195-55.706-7.885-81.067-19.797-110.865-51.985-168.721-175.787-107.554-306.21 4.779-10.138 47.753-79.121 66.253-108.476-110.182-61.85-265.557-169.028-265.557-309.35 0-134.349 117.726-252.041 252.041-252.041 77.551 0 149.231 45.227 207.223 101.581 22.187 21.026 48.469 50.347 78.404 91.136 27.102-37.001 58.982-75.503 88.951-106.803 13.79-16.35 28.706-30.242 44.373-41.711 0.137-0.102 0.273-0.239 0.444-0.375l0.034 0.034c82.534-59.972 186.47-53.214 265.489 5.871 50.893 38.093 85.060 99.738 81.818 162.816-0.102 2.662 0.103 0.853-0.102 2.832zM491.861 110.967c-45.909-52.463-104.243-97.929-175.479-97.792-135.373 0.239-246.989 145.442-234.325 267.981 11.639 112.606 105.233 161.041 191.249 216.883 79.838-109.978 166.878-235.998 252.757-343.040-11.981-16.52-23.416-31.163-34.202-44.032z" />
<glyph unicode="&#xe027;" d="M544 972.8l69.824-69.856-442.176-442.144 442.176-442.176-69.824-69.824-512 512z" horiz-adv-x="640" />
<glyph unicode="&#xe028;" d="M101.824 972.8l-69.824-69.856 442.144-442.144-442.144-442.176 69.824-69.824 512 512z" horiz-adv-x="640" />
<glyph unicode="&#xe029;" d="M0 972.5h1204v-180.6h-1204zM0 551.1h1204v-180.6h-1204zM0 129.7h1204v-180.6h-1204z" horiz-adv-x="1204" />
<glyph unicode="&#xe02a;" d="M441.695 374.836c-1.64-2.871-3.523-6.153-7.406-6.153-3.4 0-5.066 2.437-5.066 11.848l-0.001 37.324c0 36.263-20.676 43.405-34.477 43.405-16.815 0-26.95-10.012-26.95-17.589 0-0.798 0.121-1.449 0.315-2.027 0.989-4.607 5.042-8.106 10.037-8.106 5.624 0 10.083 4.561 10.083 10.231 0 0.458-0.026 0.891-0.072 1.351-0.121 1.932-0.508 5.572-0.508 6.562 0 4.705 1.4 7.359 8.106 7.359 12.303 0 13.777-9.024 13.777-23.329 0-0.891-0.026-3.548-0.026-3.548s-10.183-0.773-19.155-4.463c-9.819-3.956-15.345-6.731-21.955-12.545-7.912-6.829-10.278-15.249-10.278-24.634 0-13.291 10.351-24.586 26.539-26.055 1.498-0.216 3.185-0.288 4.849-0.288 12.447 0 18.143 4.945 22.56 10.687 2.027-2.968 6.321-8.999 18.361-8.999 9.073 0 10.905 3.258 13.487 7.96l-2.22 1.011zM408.881 375.030c-3.258-4.053-8.347-7.817-16.841-7.817-6.273 0-15.585 7.141-15.585 23.234 0 16.069 3.524 29.217 14.618 34.451 10.784 5.018 18.481 4.898 18.481 4.898s-1.159-46.323 0.578-53.151c-0.436-0.579-0.773-1.087-1.256-1.618zM20.351 397.755h1.618c2.486-9.819 4.537-16.359 11.509-22.921 5.719-5.961 12.061-8.444 20.051-8.444 14.79 0 21.763 8.18 21.763 16.815 0 9.192-7.212 12.714-24.222 20.87-13.123 6.37-24.73 11.75-24.73 30.135 0 17.442 13.897 27.018 27.429 27.018 5.718 0 10.037-1.569 13.123-2.846 4.295-1.834 5.5-2.268 7.165-2.268 1.834 0 2.679 0.65 3.283 1.255h1.618v-21.545l-1.641 0.002c-3.283 18.674-14.742 23.163-23.139 23.163-5.548 0-16.598-2.46-16.598-14.137 0-9.602 5.911-14.523 23.911-23.739 17.853-8.999 26.683-13.535 26.683-26.564 0-16.26-15.803-30.399-35.419-30.399-11.266 0-21.69 6.393-26.226 6.393-2.027 0-3.69-0.822-4.536-2.509l-1.641 0.002v29.723zM108.991 494.262c1.666 0 14.066 0 20.531 0v-36.865h20.461v-2.293l-20.485 0.001v-78.651c0-7.551 1.786-8.999 5.911-8.999 3.089 0 10.663 1.449 14.379 13.291l2.197-0.578c-3.040-11.87-11.869-16.019-21.28-16.019-15.585 0-21.715 8.999-21.715 28.876l0.001 62.053h-15.753v2.293h15.753v36.889zM237.73 385.86c-5.719-13.897-20.7-21.716-35.419-21.716-24.392 0-45.261 17.442-45.261 46.107 0 28.469 21.306 50.979 43.838 50.979 17.007 0 37.277-14.91 37.519-43.405h-58.386v-7.405c0-22.51 0-44.032 22.317-44.032 9.653 0 25.405 3.908 33.393 20.316l2.001-0.846zM218.887 420.072c-0.193 29.506-3.476 38.94-18.842 38.94-18.603 0-19.855-14.91-20.050-38.917l38.892 0.001zM258.164 558.584h-14.791v2.268h35.246v-190.527h14.742v-2.293l-49.989 0.001v2.293h14.791l0.001 188.26zM317.080 558.584h-14.765v2.268h35.298v-190.527h14.67v-2.293h-49.967v2.293h14.765v188.26zM942.343 494.262c1.689 0 14.066 0 20.531 0v-36.865h20.531v-2.293h-20.531v-78.651c0-7.55 1.857-8.999 5.911-8.999 3.161 0 10.737 1.449 14.429 13.291l2.197-0.604c-3.040-11.848-11.917-15.995-21.35-15.995-15.538 0-21.716 8.999-21.716 28.876l0.001 62.053h-15.684v2.293h15.684v36.889zM813.145 370.324h14.79v-2.293h-35.176v11.291c-2.341-3.885-7.695-13.487-21.545-13.487-19.517 0-42.221 19.833-42.221 47.698 0 28.469 23.911 47.724 42.581 47.724 13.291 0 18.649-8.396 21.183-12.039v108.736h-14.79v2.268h35.176v-189.902zM786.581 453.248c-4.053 3.715-9.265 5.743-14.791 5.743-18.842 0-19.855-19.47-19.855-42.414 0-33.176 1.834-48.567 19.493-48.567 3.064 0 12.303 0.409 18.386 10.857 4.006 6.37 4.536 16.815 4.536 35.057-0.047 25.453-0.215 32.401-7.768 39.325zM876.187 461.234c20.531 0 45.090-19.615 45.090-48.517s-24.585-48.591-45.090-48.591-45.261 19.882-45.261 48.591c0 28.686 25.38 48.517 45.261 48.517zM876.187 366.417c21.545 0 22.194 17.854 22.194 46.323 0 28.494 0 46.273-22.194 46.273-21.064 0-22.364-17.009-22.364-46.273-0.001-29.313 0.649-46.323 22.364-46.323zM685.036 406.972h-2.39c0.821-15.176-8.251-25.961-15.153-31.145-10.881-8.106-19.806-5.018-28.253 2.751-4.801 4.437-30.135 37.226-36.191 44.925 3.378 5.548 6.852 11.702 10.373 18.553 7.841 14.791 16.335 28.612 26.418 36.529 0 0.025 0 0.025 0.025 0.025s0.049 0.026 0.073 0.026c-0.749-1.037-1.545-2.124-2.268-3.353-6.948-12.498-2.605-28.276 9.795-35.297 12.57-6.997 28.276-2.533 35.346 9.893 6.73 12.039 2.846 27.141-8.587 34.451h0.121c-0.241 0.194-0.604 0.314-0.822 0.436-0.169 0.097-0.361 0.264-0.604 0.361-1.303 0.726-2.582 1.351-4.031 1.834l0.025 0.097c-30.328 10.279-49.314-25.986-58.484-43.405-3.257-6.37-6.536-12.061-9.555-17.227l-11.579 15.296-35.201 49.436c0 0-9.748 13.897-17.418 29.699-0.626 1.159-0.967 2.46-1.473 3.644-4.823 13.511-5.162 25.213 9.119 31.871 3.449 1.569 7.841 3.064 12.979 3.57 14.572 0.604 18.817-3.425 24.876-7.889 10.543-7.866 18.335-21.472 19.591-38.095h3.041l-0.001 47.769h-3.017c-0.891-3.884-3.57-11.823-10.447-11.411-1.76 0.096-3.33 0.866-4.801 1.954-3.739 3.476-10.012 7.311-14.67 8.685-2.631 0.749-5.259 1.182-8.012 1.378-1.76 0.169-3.257 0.169-4.369 0.047v-0.025c-5.548-0.241-11.122-1.593-16.117-3.981-22.026-10.351-33.656-34.959-21.472-60.945 0.967-2.001 9.532-15.73 13.197-21.592-21.883-12.328-52.839-33.633-52.839-61.572 0-26.732 23.451-50.183 50.136-50.183 15.538 0 29.774 8.999 41.28 20.219 4.462 4.197 9.603 10.012 15.66 18.143 5.307-7.36 11.678-15.007 17.734-21.28 2.631-3.283 5.694-5.983 8.779-8.275 0.025 0 0.047-0.047 0.073-0.047v0c16.384-11.968 37.082-10.616 52.839 1.132 10.159 7.578 16.938 19.833 16.259 32.426 0.003 0.533 0.047 0.194 0.003 0.579zM580.204 396.431c-9.192-10.52-20.749-19.566-34.935-19.518-26.998 0.047-49.146 28.977-46.709 53.318 2.39 22.437 21.038 32.041 38.145 43.186 15.9-21.858 33.199-46.975 50.255-68.278-2.318-3.307-4.655-6.201-6.756-8.71z" horiz-adv-x="1015" />
<glyph unicode="&#xe02b;" d="M660.129 93.155c56.349 23.172 114.951 6.554 166.707-33.499 27.619 22.44 52.692 47.367 74.84 74.518-39.088 52.721-35.372 109.948-11.703 166.473 23.698 56.583 66.18 88.386 130.984 97.046 3.833 34.875 4.096 70.363 0.702 105.94-64.688 9.304-121.768 50.673-144.647 107.461-22.879 56.759-10.591 126.713 29.257 179.054-22.177 27.824-46.899 53.043-73.757 75.308-52.341-39.556-104.711-46.811-160.768-23.055-56.027 23.757-98.216 62.084-106.672 127.386-34.611 3.774-69.808 3.95-105.062 0.468-9.392-65.214-39.79-118.491-96.139-141.692s-125.689-10.914-177.444 29.11c-27.648-22.44-52.722-47.396-74.87-74.518 39.088-52.721 46.139-105.501 22.469-162.085-23.698-56.583-66.15-88.386-130.955-97.046-3.833-34.875-4.096-70.363-0.702-105.969 64.658-9.275 121.768-50.615 144.618-107.432 22.879-56.759 10.62-126.713-29.228-179.024 22.177-27.824 46.87-53.043 73.757-75.308 52.341 39.556 104.711 46.811 160.739 23.055 56.057-23.757 98.245-62.084 106.672-127.386 34.611-3.774 69.778-3.95 105.062-0.468 9.392 65.214 39.791 118.433 96.14 141.663zM315.48 379.963c-44.061 109.363 8.221 234.262 116.765 278.938s232.243-7.753 276.275-117.116c44.061-109.334-8.221-234.233-116.765-278.908-108.544-44.677-232.243 7.752-276.275 117.086z" />
<glyph unicode="&#xe02c;" d="M512 204.8l-512 512h1024l-512-512z" />
<glyph unicode="&#xe02d;" d="M819.824 617.76l-8.32-8.32-152.16 152.224 8.32 8.32c0 0 36.432 48.16 88.24 48.16 22.816 0 48.688-9.36 75.712-36.384 89.12-89.136-11.792-164-11.792-164zM771.664 572.928l-378.992-379.232-225.328-73.248 73.232 225.472v0.080h0.032l378.944 379.216 6.704-6.72zM240.64 193.776l112.576 32.384-76.912 81.872-35.664-114.256z" horiz-adv-x="1056" />
<glyph unicode="&#xe600;" d="M568.158 483.049v489.751h-200.911v-489.884h-226.418l326.874-360.648 326.874 360.531zM0 42.758h935.404v-93.958h-935.404v93.958z" horiz-adv-x="935" />
<glyph unicode="&#xe601;" d="M334.191 739.233h40.191v-160.76h-40.191v160.76zM253.813 739.233h40.191v-160.76h-40.191v160.76zM595.426 417.716c0-55.491-44.983-100.475-100.475-100.475s-100.475 44.983-100.475 100.475c0 55.491 44.983 100.475 100.475 100.475 55.491 0 100.475-44.983 100.475-100.475zM824.709 793.653c-27.933 25.963-61.009 25.963-61.009 25.963h-537.659c0 0-35.569-0.283-60.203-24.434-32.595-31.87-32.595-71.134-32.595-71.134v-537.217c0 0 0-33.439 31.227-63.619 27.37-26.445 61.572-27.008 61.572-27.008h537.659c0 0 31.509 0 62.898 29.138 29.86 27.689 30.061 61.491 30.061 61.491v351.458h0.039v186.923c0 0 0.924 37.698-31.989 68.444zM816.509 623.527l-0.402 65.59c-1.124 7.073-4.903 21.943-18.852 34.964-14.709 13.664-32.030 15.031-34.080 15.15h-59.882c0 0-16.437-0.924-30.422-14.106-17.161-16.236-17.161-31.71-17.161-31.71v-69.89c0 0 0-17.119 15.955-31.671 14.549-13.342 31.63-13.382 31.63-13.382h66.594c0 0 19.574 0 32.916 15.432 12.299 14.185 13.664 29.622 13.704 29.622l-0.039-125.434h-183.106c13.826-23.753 22.345-50.962 22.345-80.378 0-88.658-72.098-160.76-160.76-160.76s-160.76 72.098-160.76 160.76c0 29.419 8.521 56.629 22.345 80.378h-183.106v80.378h40.191v158.386c-2.651-0.764-5.505-1.928-8.319-3.215-0.683-0.322-1.366-0.482-2.089-0.885-3.296-1.689-6.471-3.779-9.243-6.471-19.331-18.891-20.536-42.24-20.536-42.442v40.191c0 0.201 1.204 23.551 20.536 42.442 10.248 10.048 27.209 12.781 32.070 12.942h537.097c2.049-0.121 19.413-1.487 34.080-15.15 18.609-17.401 19.252-38.060 19.291-39.065v-101.681z" />
<glyph unicode="&#xe602;" d="M819.824 617.76l-8.32-8.32-152.16 152.224 8.32 8.32c0 0 36.432 48.16 88.24 48.16 22.816 0 48.688-9.36 75.712-36.384 89.12-89.136-11.792-164-11.792-164zM771.664 572.928l-378.992-379.232-225.328-73.248 73.232 225.472v0.080h0.032l378.944 379.216 6.704-6.72zM240.64 193.776l112.576 32.384-76.912 81.872-35.664-114.256z" horiz-adv-x="1056" />
<glyph unicode="&#xe603;" d="M512 972.8l-235.52-373.76h470.989l-235.469 373.76zM512.051-51.2l235.469 373.76-471.040 0.051 235.571-373.811z" />
<glyph unicode="&#xe604;" d="M716.749 696.32l0.051-471.040-409.6 235.52z" />
<glyph unicode="&#xe605;" d="M747.52 665.549l-471.040 0.051 235.52-409.6z" />
<glyph unicode="&#xe606;" d="M276.48 256h471.040l-235.571 409.6z" />
<glyph unicode="&#xe607;" d="M307.251 696.32l-0.051-471.040 409.6 235.52z" />
<glyph unicode="&#xe608;" d="M785.067 290.133c-44.51 0-82.057-28.604-96.119-68.267h-415.881v204.8h415.881c14.131-39.663 51.61-68.267 96.119-68.267 56.525 0 102.4 45.875 102.4 102.4s-45.875 102.4-102.4 102.4c-44.51 0-82.057-28.604-96.119-68.267h-415.881v136.533h341.333v204.8h-477.867v-204.8h68.267v-477.867h484.147c14.131-39.663 51.61-68.267 96.119-68.267 56.525 0 102.4 45.875 102.4 102.4s-45.875 102.4-102.4 102.4z" />
<glyph unicode="&#xe609;" d="M694.88 278.704l-0.656 129.312c-215.952 1.392-377.328-170.48-377.328-170.48s25.568 235.856 377.984 305.072v116.064l205.504-190.176-205.504-189.792z" horiz-adv-x="1216" />
<glyph unicode="&#xe60a;" d="M972.8 819.2v-768h-102.4v102.4h-153.6v-102.4h-409.6v102.4h-153.6v-102.4h-102.4v768h921.6zM1024 870.4h-1024v-870.4h204.8v102.4h51.2v-102.4h512v102.4h51.2v-102.4h204.8v870.4zM153.6 716.8h358.4v-358.4h-358.4v358.4zM614.4 665.6h256v-51.2h-256v51.2zM614.4 563.2h256v-51.2h-256v51.2zM614.4 460.8h256v-51.2h-256v51.2z" />
<glyph unicode="&#xe60b;" d="M729.851 85.048l0.584 0.512c-0.445-0.276-0.891-0.512-1.331-0.773l0.748 0.261zM1024 435.19l-50.335 95.017 19.953 105.641-83.2 68.019-22.559 105.108-103.086 30.408-61.522 88.125-106.767-12.012-90.895 57.303-93.747-52.531-105.989 17.536-66.038-84.813-104.484-24.991-27.991-103.823-86.61-63.611 14.449-106.547-55.178-92.273 54.625-92.575-15.084-106.476 86.226-64.102 27.377-104.008 81.92-20.096 45.128-71.363 107.187 7.096 88.182-61.425 96.046 48.174 105.083-22.39 69.873 81.715 105.508 20.152 32.712 102.415 89.436 59.592-9.544 107.090 59.325 89.641zM745.165 58.629l-0.804-0.276c0.466 0.276 0.957 0.538 1.434 0.829l-0.63-0.553zM860.283 197.402l-30.551-95.703-98.596-18.831-65.28-76.334-98.171 20.92-89.733-45.005-82.381 57.39-100.163-6.625-42.153 66.668-76.539 18.785-25.585 97.178-80.553 59.889 14.085 99.466-51.026 86.487 51.553 86.211-13.507 99.558 80.932 59.423 26.143 96.993 97.623 23.368 61.706 79.242 99.026-16.394 87.583 49.070 84.915-53.535 99.763 11.223 57.482-82.324 96.307-28.406 21.079-98.196 77.732-63.565-18.642-98.698 47.027-88.786-55.429-83.738 8.924-100.060-83.574-55.67zM926.874 355.169l1.521 2.294 52.854 79.846-46.131 87.091 0.512 2.703 17.772 94.111-76.252 62.351-0.579 2.693-20.096 93.635-94.469 27.863-56.387 80.758-97.859-11.008-83.297 52.516-85.914-48.138-97.137 16.082-60.529-77.732-95.759-22.922-25.646-95.145-79.386-58.286 13.245-97.659-1.413-2.36-49.152-82.202 50.058-84.849-0.384-2.724-13.43-94.843 79.017-58.747 25.098-95.324 75.080-18.427 41.349-65.398 98.253 6.502 80.809-56.294 88.023 44.15 96.297-20.521 63.293 74.010-1.091 2.371 0.599 0.343 0.568 0.328 1.495-2.017 95.887 18.314 29.967 93.875 81.981 54.6-8.509 95.411-0.261 2.749zM739.041 539.996l-260.521-259.999c-3.118-3.471 3.22-10.322-1.459-10.322s-18.821 6.851-21.939 10.322l-148.721 149.238c-3.118 3.461-4.68 7.45-4.68 11.96 0 4.5 1.562 8.489 4.68 11.96l35.364 35.359c3.461 3.123 7.45 4.68 11.96 4.68 4.5 0 8.489-1.562 11.96-4.68l101.402-101.919 212.68 212.68c3.461 3.461 7.45 5.202 11.96 5.202 4.5 0 8.489-1.741 11.96-5.202l35.359-35.359c3.123-3.118 4.68-7.020 4.68-11.699s-1.562-8.755-4.685-12.221z" />
<glyph unicode="&#xe60c;" d="M2280.361-3526.804l1.587 1.398c-1.208-0.753-2.422-1.398-3.63-2.109l2.043 0.712zM2322.068-3598.761l-2.191-0.753c1.275 0.753 2.611 1.464 3.901 2.258l-1.71-1.505zM729.851 85.048l0.584 0.512c-0.445-0.276-0.891-0.512-1.331-0.773l0.748 0.261zM1024 435.19l-50.335 95.017 19.953 105.641-83.2 68.019-22.559 105.108-103.086 30.408-61.522 88.125-106.767-12.012-90.895 57.303-93.747-52.531-105.989 17.536-66.038-84.813-104.484-24.991-27.991-103.823-86.61-63.611 14.449-106.547-55.178-92.273 54.625-92.575-15.084-106.476 86.226-64.102 27.377-104.008 81.92-20.096 45.128-71.363 107.187 7.096 88.182-61.425 96.046 48.174 105.083-22.39 69.873 81.715 105.508 20.152 32.712 102.415 89.436 59.592-9.544 107.090 59.325 89.641zM745.165 58.629l-0.804-0.276c0.466 0.276 0.957 0.538 1.434 0.829l-0.63-0.553zM860.283 197.402l-30.551-95.703-98.596-18.831-65.28-76.334-98.171 20.92-89.733-45.005-82.381 57.39-100.163-6.625-42.153 66.668-76.539 18.785-25.585 97.178-80.553 59.889 14.085 99.466-51.026 86.487 51.553 86.211-13.507 99.558 80.932 59.423 26.143 96.993 97.623 23.368 61.706 79.242 99.026-16.394 87.583 49.070 84.915-53.535 99.763 11.223 57.482-82.324 96.307-28.406 21.079-98.196 77.732-63.565-18.642-98.698 47.027-88.786-55.429-83.738 8.924-100.060-83.574-55.67zM926.874 355.169l1.521 2.294 52.854 79.846-46.131 87.091 0.512 2.708 17.772 94.106-76.252 62.351-0.579 2.693-20.096 93.635-94.469 27.863-56.387 80.758-97.859-11.008-2.33 1.464-80.968 51.052-85.914-48.138-2.714 0.445-94.423 15.631-60.529-77.727-95.759-22.922-25.646-95.145-79.386-58.286 13.245-97.659-1.413-2.36-49.152-82.202 50.053-84.849-0.384-2.729-13.435-94.838 79.017-58.747 25.098-95.324 75.080-18.432 41.349-65.398 98.253 6.502 80.804-56.294 88.028 44.15 96.292-20.521 63.293 74.015-1.091 2.371 0.599 0.343 0.563 0.328 1.5-2.017 95.882 18.314 29.972 93.88 81.981 54.6-8.509 95.411z" />
<glyph unicode="&#xe60d;" d="M972.877 713.626l-88.038 52.096-138.88-14.618c-7.552 48.563-27.853 122.675-82.765 171.93-43.443 38.989-99.814 55.219-167.091 48.154-81.152-8.499-142.49-50.099-177.331-120.346-22.81-45.952-31.36-99.507-32.205-141.261l-206.925-20.787-54.605-596.71 173.056-143.283 800.87 169.344-26.086 595.482zM387.738 846.080c26.189 37.376 63.744 58.138 114.79 63.488 49.869 5.146 88.832-5.427 119.091-32.486 39.834-35.61 55.91-92.39 62.413-131.584l-335.053-30.285c1.434 37.171 9.728 89.395 38.758 130.867z" />
<glyph unicode="&#xe60e;" d="M881.291 577.437l-3.683 76.434h-89.984c-1.876-32.658-3.683-62.607-3.753-62.398h-249.731l-3.335 62.398h-90.47l-3.683-76.434c0 0-359.38-211.306-359.38-288.783s0-339.855 0-339.855h1163.469c0 0 0 264.81 0 339.855-0.069 74.906-359.45 288.783-359.45 288.783zM537.754 33.851h-81.577v88.803h81.577v-88.803zM537.754 211.387h-81.577v88.803h81.577v-88.803zM537.754 388.923h-81.577v88.803h81.577v-88.803zM700.836 33.851h-81.577v88.803h81.577v-88.803zM700.836 211.387h-81.577v88.803h81.577v-88.803zM700.836 388.923h-81.577v88.803h81.577v-88.803zM863.988 33.851h-81.576v88.803h81.576v-88.803zM863.988 211.387h-81.576v88.803h81.576v-88.803zM863.988 388.923h-81.576v88.803h81.576v-88.803zM1224.133 876.631c-109.857 45.86-381.407 96.168-565.127 96.168s-455.27-50.307-565.197-96.168c-53.435-22.305-59.062-142.515-59.689-170.379-0.069-0.417 0.069-0.765 0-1.251-0.765-7.644-0.834-15.286 0.417-22.027l10.493-56.978c5.558-31.268 33.283-51.558 61.981-45.514l223.119 50.794c28.628 6.045 47.389 36.202 41.83 67.402v6.393l0.278 63.997c22.166 3.405 49.613 6.602 71.709 9.52 0 0 135.011 17.51 215.127 17.51s215.127-17.51 215.127-17.51c22.096-2.918 49.543-6.115 71.709-9.52l0.278-63.997v-6.393c-5.558-31.13 13.202-61.356 41.83-67.402l223.119-50.794c28.628-6.045 56.353 14.384 61.912 45.514l10.422 56.978c1.251 6.74 1.111 14.384 0.417 22.027-0.069 0.417 0.069 0.903 0 1.321-0.694 28.003-6.393 148.144-59.758 170.309z" horiz-adv-x="1343" />
<glyph unicode="&#xe60f;" d="M516.931-25.6l-48.471 50.308c-1.479 1.52-206.064 214.381-328.806 351.863-83.587 93.625-125.268 214.928-111.446 324.496 11.437 90.275 59.334 166.071 134.874 213.462 34.014 21.354 71.312 32.183 110.879 32.183 95.429 0 182.103-63.935 236.938-116.074 54.653 52.383 141.333 116.56 237.661 116.56 43.094 0 83.539-12.653 120.175-37.655 73.913-50.43 118.094-124.464 127.782-214.077 11.708-108.102-31.657-228.797-116.041-322.787-125.849-140.225-316.099-346.877-316.099-346.877l-47.444-51.403zM273.961 805.455c-15.241 0-28.489-3.891-41.675-12.167-40.709-25.549-64.461-62.841-70.528-110.838-8.573-67.954 19.916-146.183 76.291-209.328 85.68-95.936 212.733-230.135 276.897-297.481 64.374 70.143 181.076 197.647 267.358 293.826 57.645 64.239 87.674 142.778 80.337 210.057-5.073 47.025-27.731 84.499-67.421 111.568-14.876 10.16-29.697 14.903-46.66 14.903-73.156 0-158.775-87.721-185.575-121.485l-51.667-73.541-52.058 73.42c-36.723 44.844-117.303 121.066-185.298 121.066z" />
<glyph unicode="&#xe610;" d="M512 972.8c-283.424 0-513.184-229.76-513.184-513.184s229.76-513.184 513.184-513.184 513.184 229.76 513.184 513.184-229.76 513.184-513.184 513.184zM780.512 550.592c-0.992-2.336-2.432-4.48-4.416-6.432l-292.608-292.608c-1.952-1.952-4.096-3.36-6.432-4.384-2.336-0.928-4.672-1.44-7.008-1.44s-4.672 0.512-7.008 1.44c-2.336 0.992-4.48 2.432-6.432 4.384l-167.040 167.616c-1.92 1.952-3.392 4.128-4.352 6.432-0.992 2.304-1.44 4.672-1.44 7.008 0 2.368 0.48 4.672 1.44 7.008 0.96 2.368 2.432 4.512 4.384 6.464l39.712 39.68c1.952 1.984 4.096 3.392 6.432 4.416 2.336 0.96 4.672 1.44 7.008 1.44s4.672-0.48 7.008-1.44c2.336-0.992 4.48-2.432 6.432-4.416l113.888-114.464 238.88 238.848c1.952 1.952 4.096 3.392 6.432 4.384s4.672 1.472 7.008 1.472 4.672-0.512 7.008-1.472c2.336-0.96 4.48-2.432 6.432-4.384l39.712-39.712 0.544 0.608c1.984-1.952 3.392-4.096 4.416-6.4 0.96-2.336 1.44-4.672 1.44-7.040 0-2.368-0.48-4.672-1.44-7.008z" />
<glyph unicode="&#xe611;" d="M580.301 921.6h-467.917v-781.875h138.65v-139.725h660.582v589.312l-331.315 332.288zM251.034 781.875v-581.478h-77.978v660.531h382.157l79.104-79.053h-383.283zM850.944 60.672h-539.238v660.531h382.157l157.082-157.030v-503.501zM430.336 602.778h290.099v-79.667h-290.099v79.667zM430.336 237.978h290.099v-79.667h-290.099v79.667zM430.336 420.352h290.099v-79.667h-290.099v79.667z" />
<glyph unicode="&#xe612;" d="M424.305 754.401c19.333 0 35.062 15.688 35.062 35.021s-33.341 121.61-35.062 102.359c-19.128-58.245-35.021-83.026-35.021-102.359s15.688-35.021 35.021-35.021zM606.536 754.401c19.333 0 35.062 15.688 35.062 35.021s-33.341 121.61-35.062 102.359c-19.128-58.245-35.021-83.026-35.021-102.359s15.688-35.021 35.021-35.021zM789.791 754.401c19.333 0 35.062 15.688 35.062 35.021s-33.341 121.61-35.062 102.359c-19.128-58.245-35.021-83.026-35.021-102.359s15.688-35.021 35.021-35.021zM1045.094 413.942c0 66.683-54.231 120.914-120.914 120.914h-93.716c1.597 3.031 2.54 6.431 2.54 10.035v152.863c0 12.124-9.83 21.996-21.996 21.996h-43.95c-12.124 0-21.955-9.83-21.955-21.996v-152.822c0-3.645 0.942-7.045 2.54-10.035h-99.041c1.556 3.031 2.54 6.431 2.54 10.035v152.822c0 12.124-9.83 21.996-21.955 21.996h-43.95c-12.165 0-21.996-9.83-21.996-21.996v-152.822c0-3.645 0.983-7.045 2.54-10.035h-99.041c1.556 3.031 2.54 6.431 2.54 10.035v152.822c0 12.124-9.83 21.996-21.996 21.996h-43.991c-12.124 0-21.996-9.83-21.996-21.996v-152.822c0-3.645 0.983-7.045 2.54-10.035h-79.258c-66.683 0-120.914-54.231-120.914-120.914v-313.713h861.43v313.672zM61.44 31.744h1105.92v-82.944h-1105.92v82.944z" horiz-adv-x="1229" />
<glyph unicode="&#xe613;" d="M822.835 530.33v146.432c0 162.816-133.222 296.038-296.038 296.038h-29.594c-162.816 0-296.038-133.222-296.038-296.038v-146.432c-41.882-6.451-73.984-42.547-73.984-86.272v-407.91c0-48.23 39.117-87.347 87.347-87.347h594.944c48.282 0 87.398 39.117 87.398 87.398v407.91c-0.051 43.674-32.154 79.77-74.035 86.221zM427.418 64.717l53.504 183.45c-33.69 12.646-57.702 45.005-57.702 83.098 0 49.050 39.782 88.781 88.832 88.781 49.050 0 88.781-39.782 88.781-88.781 0-38.093-24.013-70.502-57.754-83.098l53.504-183.45h-169.165zM718.387 536.218h-412.774v135.987c0 109.005 88.678 197.683 197.632 197.683h17.459c1.024 0 2.048-0.051 3.123-0.102 3.994-0.051 7.987-0.307 11.93-0.563 101.99-7.731 182.63-93.082 182.63-197.018v-135.987z" />
<glyph unicode="&#xe614;" d="M758.409 821.828h265.591v-858.624h-265.591v858.624zM372.702 600.644h265.591v-637.406h-265.591v637.406zM0 405.606h265.591v-442.402h-265.591v442.402z" />
<glyph unicode="&#xe615;" d="M512 830.060c-203.587 0-369.26-165.672-369.26-369.26s165.672-369.26 369.26-369.26 369.26 165.672 369.26 369.26-165.672 369.26-369.26 369.26zM512 137.701c-178.149 0-323.099 144.95-323.099 323.099 0 178.149 144.923 323.099 323.099 323.099s323.099-144.95 323.099-323.099c0-178.149-144.95-323.099-323.099-323.099zM707.153 534.932l-139.911-36.541c-12.18 17.462-32.337 28.941-55.215 28.941-7.545 0-14.659-1.509-21.423-3.8l-132.662 161.28-30.477-28.429 129.644-157.588c-7.788-10.995-12.45-24.333-12.45-38.831 0-37.214 30.154-67.368 67.368-67.368 36.352 0 65.779 28.861 67.126 64.889l138.779 36.244-10.779 41.203zM535.067 719.576c0-12.74-10.327-23.067-23.067-23.067s-23.067 10.327-23.067 23.067c0 12.74 10.327 23.067 23.067 23.067 12.74 0 23.067-10.327 23.067-23.067zM535.067 211.86c0-12.74-10.327-23.067-23.067-23.067s-23.067 10.327-23.067 23.067c0 12.74 10.327 23.067 23.067 23.067 12.74 0 23.067-10.327 23.067-23.067zM801.738 442.637c0-12.74-10.327-23.067-23.067-23.067s-23.067 10.327-23.067 23.067c0 12.74 10.327 23.067 23.067 23.067 12.74 0 23.067-10.327 23.067-23.067zM270.956 442.637c0-12.74-10.327-23.067-23.067-23.067s-23.067 10.327-23.067 23.067c0 12.74 10.327 23.067 23.067 23.067 12.74 0 23.067-10.327 23.067-23.067z" />
<glyph unicode="&#xe616;" d="M708.312 591.737c-7.923-15.872-32.472-31.69-33.28-35.651 0 0-0.781 9.512-3.934 27.702-3.18 18.243 5.524 29.319 20.588 39.613 15.037 10.294 24.549-15.818 16.627-31.663zM695.619 251.149c-7.114 15.225-24.549 41.176-32.472 52.305-7.949 11.075-57.048 87.121-68.123 114.041-11.075 26.92-1.563 39.613 3.961 55.458 5.524 15.845 7.949 6.333 30.073 10.294 22.178 3.934 23.795 25.304 23.795 25.304 9.485 11.129 1.563-16.627-3.961-33.253-5.551-16.627 4.743-36.433 13.447-67.315 8.704-30.882 19.806-53.868 21.396-80.007 1.59-26.139 19.025-92.052 11.884-76.827zM836.904 107.682c6.413 38.454-3.746 30.451-2.668 53.437 1.078 22.959 1.159-6.952 15.279-16.573 14.12-9.62-8.327 24.603-13.689 48.613-2.641 12.045-6.71 21.531-6.036 22.932 0.674 1.374 6.036-5.282 12.989-6.872 5.012-1.132 14.471-3.665 9.485 1.32-18.782 18.836-28.564 37.861-29.238 55.323-0.862 21.585-1.59 4.877 15.98-3.341 4.635-2.183 26.139-6.656 26.139-6.656s-49.341 24.414-46.403 44.625c4.797 33.118 6.925 19.348 20.318 45.002 13.339 25.654 60.901 193.455-19.779 273.597 0 0-35.813 56.104-89.223 58.772-20.642 0.997-12.315 7.114-10.348 17.327 4.015 20.992-9.944 178.796-142.471 235.439 0 0-112.586 46.269-282.139-27.81 0 0-80.141-41.661-84.453-74.806-4.258-33.118 0-29.912-6.413-53.437-6.413-23.498-11.749-65.186 0-89.762 11.749-24.603-4.258-51.281-23.525-79.091-19.213-27.783-30.989-54.488-12.827-63.057s26.597 1.994 40.475-7.626c13.878-9.62 10.968-17.462 6.71-25.977-1.994-3.907-5.363-5.47-6.44-10.348-1.267-5.74-0.997-10.968 3.072-12.692 7.464-3.207 3.207-8.542 3.207-16.007 0-7.491-1.078-10.698 10.698-14.983 11.722-4.258 13.878-7.464 11.722-26.705-2.129-19.213 9.62-54.488 36.352-55.565 26.678-1.078 58.745 12.827 74.806 12.827 16.007 0 45.945-62.006 56.643-81.246 10.671-19.213 39.559-74.806 6.413-110.080-27.136-28.915-101.672-109.487-122.611-187.85 34.331-13.959 210.324-34.358 271.333-28.672 61.009 5.686 111.185 29.992 160.499 53.491 49.287 23.471 114.931 69.066 116.143 76.45z" />
<glyph unicode="&#xe617;" d="M538.947 389.201v-61.494c26.947 3.907 34.466 18.109 34.466 31.636 0 16.007-7.518 23.821-34.466 29.858zM479.286 468.453c0-13.851 5.767-20.965 32.714-26.301v55.431c-26.947-2.102-32.714-13.474-32.714-29.13zM999.936 604.861c0 0-23.121 18.648-33.576 11.938-10.456-6.71 3.719-31.34 3.719-31.34s17.139-13.608 19.375-29.292c2.237-15.656-8.866-36.729-29.75-36.729-7.815 0-13.662 2.937-17.92 6.602-37.295 159.286-198.333 279.121-391.357 279.121-35.732 0-73.809-3.665-110.727-8.785l0.243 0.081-12.584 22.151c0 0-67.153 71.626-108.544 87.283-41.391 15.656-99.786-6.737-99.786-6.737s36.379-38.4 49.044-74.213c9.054-25.6 13.42-53.032 15.171-66.749-60.227-32.499-101.484-89.573-139.021-139.884-14.093-18.917-40.071-33.172-61.117-49.206l-83.106-13.474v-214.851l61.278-4.662c15.495-32.849 39.613-72.677 55.862-92.295 34.304-41.472 68.069-42.388 122.476-65.859 11.857-5.147 42.604-40.529 45.083-40.529h-0.404l21.073-134.737h71.626l37.457 84.103c51.55-0.296 103.774 10.59 136.003 10.59 19.779 0 39.208-11.345 58.233-8.92l18.971-85.773h71.626l84.803 152.36c100.433 63.515 165.861 175.239 165.861 292.002 0 10.159-0.593 24.414-1.59 34.358 15.414 1.94 37.645 8.003 47.832 15.414 16.411 11.938 26.112 27.917 25.357 55.512-0.728 27.594-21.612 52.52-21.612 52.52zM538.947 290.789v-18.621h-26.947v18.621c-53.895 2.829-67.449 16.707-85.935 36.945l24.657 31.987c13.501-14.579 34.331-27.729 61.278-31.636v68.581c-53.895 9.243-75.345 22.393-75.345 68.931 0 36.244 21.45 64.674 75.345 68.581v34.412h26.947v-34.735c26.947-3.207 50.553-14.201 69.066-31.987l-22.609-30.909c-13.528 13.15-19.51 21.315-46.457 24.872v-61.117c26.947-9.944 76.773-23.821 76.773-71.437 0-36.244-22.878-67.88-76.773-72.488zM692.467 643.503c-0.512 0.243-54.703 28.16-115.874 31.636-56.051 3.18-110.484-13.662-111.023-13.851l-16.088 51.254c2.614 0.808 64.431 19.941 130.156 16.222 73.108-4.15 135.195-36.325 137.809-37.699l-24.98-47.562z" />
<glyph unicode="&#xe618;" d="M867.005 543.367c-65.644-37.484-185.209-128.97-237.541-180.871-104.691-103.855-215.633-170.981-282.597-170.981-6.71 0-13.123 0.647-18.998 1.967-12.288 2.722-17.219 3.853-171.385 162.385-42.227-17.435-71.599-30.1-60.739-40.987 24.603-24.603 235.304-244.844 246.622-247.323 48.532-10.698 160.472 49.421 272.546 160.579 60.659 60.173 223.663 184.347 280.576 203.318 56.913 18.971 40.664 40.664 40.664 40.664l-69.147 71.249zM399.629 453.309l21.8-29.238c10.267 10.563 9.971 20.83 5.174 27.271-5.659 7.626-15.522 6.036-26.974 1.967zM520.839 624.182c-18.432-13.743-10.779-37.78 5.228-59.257 16.007-21.477 36.972-35.84 55.404-22.097 18.432 13.743 10.671 37.942-5.336 59.392-16.034 21.477-36.864 35.705-55.296 21.962zM624.99 701.79c-18.432-13.743-10.779-37.78 5.228-59.257s36.972-35.84 55.404-22.097c18.432 13.743 10.671 37.942-5.336 59.419-16.034 21.504-36.864 35.705-55.296 21.935zM928.418 628.952l-215.795 222.531c-65.051 17.624-142.956-29.292-204.261-70.899-68.797-46.7-112.883-85.315-193.617-173.568-70.36-76.908-251.284-110.7-226.708-135.303 24.576-24.603 235.304-244.844 246.622-247.323 48.532-10.698 160.472 49.421 272.546 160.579 60.659 60.173 223.663 184.347 280.576 203.318 56.886 18.971 40.637 40.664 40.637 40.664zM445.898 391.249l-13.528-10.078-11.345 15.225c-18.594-11.749-36.541-14.875-52.52-11.776l-0.35 23.417c11.587-2.156 25.896-1.213 39.64 6.117l-24.333 32.633c-20.696-8.596-43.789-16.061-60.308 6.063-12.854 17.246-8.92 41.256 11.533 59.365l-11.722 15.737 13.528 10.078 11.857-15.899c14.821 8.704 30.235 12.019 45.325 10.132l-0.377-23.148c-11.075 1.455-21.935-0.566-31.475-5.066l21.693-29.103c21.127 8.381 44.975 15.899 61.844-6.764 12.854-17.246 12.935-40.637-10.806-61.736l11.345-15.198zM509.197 464.734l-64.916 87.094-4.204-32.849-20.453 3.449 8.030 57.021 17.246 12.854 84.076-112.802-19.779-14.767zM594.594 525.231c-31.636-23.579-67.476-3.719-88.63 24.684-21.181 28.429-29.831 68.258 1.779 91.837 31.609 23.579 67.341 3.907 88.522-24.495 21.154-28.429 29.965-68.446-1.671-92.025zM698.718 602.867c-31.609-23.579-67.476-3.719-88.63 24.684-21.181 28.403-29.831 68.258 1.779 91.837 31.609 23.579 67.341 3.88 88.522-24.522 21.181-28.403 29.965-68.419-1.671-91.998zM342.447 469.342c4.904-6.602 14.040-5.066 24.899-0.916l-19.672 26.381c-8.893-8.192-10.779-18.028-5.228-25.465z" />
<glyph unicode="&#xe619;" d="M796.537 500.17c21.558 6.198 25.061 3.988 31.043-6.063 9.081-15.252-3.234-30.639-13.878-40.125 14.147-4.743 27.325-9.836 39.424-15.252 18.944 23.875 22.528 51.227 8.138 75.399-17.246 28.968-40.879 31.043-62.68 26.84 1.509-13.851 0.674-27.567-2.048-40.798zM196.446 494.107c5.982 10.024 9.566 12.234 31.043 6.063-2.722 13.258-3.557 26.947-2.075 40.825-21.8 4.204-45.433 2.129-62.68-26.84-14.363-24.199-10.806-51.55 8.138-75.426 12.099 5.443 25.25 10.509 39.478 15.279-10.671 9.459-23.013 24.845-13.905 40.098zM700.659 585.917c1.159 0 2.291-0.027 3.422-0.135 14.39-1.024 26.004-8.677 33.549-22.124 17.354-30.936 8.569-63.219-6.764-88.226 13.905-2.749 27.325-5.74 40.125-8.973 17.489 34.654 23.175 76.584 0.808 116.386-14.12 25.115-37.16 40.017-64.916 42.011-2.075 0.162-4.15 0.216-6.225 0.216-16.842 0-34.088-4.931-50.634-13.905-0.674-18.27-3.853-36.837-8.381-55.458 18.459 19.025 40.044 30.208 59.015 30.208zM293.133 475.459c-15.36 25.007-24.145 57.29-6.764 88.226 7.545 13.447 19.16 21.1 33.523 22.124 1.159 0.081 2.344 0.135 3.53 0.135 19.294 0 40.61-11.183 58.961-30.154-4.554 18.648-7.734 37.214-8.408 55.485-16.438 8.947-33.63 13.851-50.553 13.851-2.129 0-4.231-0.081-6.333-0.216-27.756-1.994-50.796-16.923-64.889-42.011-22.393-39.801-16.707-81.731 0.781-116.386 12.827 3.207 26.274 6.198 40.152 8.947zM411.567 501.976c1.132-3.584 2.237-7.033 3.288-10.536 13.204 0.97 26.597 1.752 40.286 2.317-1.967 6.548-4.042 13.177-6.198 19.968-12.638 40.232-25.735 81.812-22.474 115.173 1.725 17.704 17.354 36.675 33.469 40.61 1.59 0.35 3.395 0.674 5.336 0.674 5.767 0 12.854-2.56 19.995-13.528l-25.492-61.763 41.256-99.975c3.665 0.027 7.276 0.108 10.968 0.108 3.665 0 7.303-0.081 10.914-0.108l41.31 99.975-25.546 61.763c7.195 10.968 14.282 13.528 20.022 13.528 1.94 0 3.773-0.269 5.363-0.647 16.088-3.934 31.744-22.905 33.469-40.61 3.234-33.361-9.836-74.941-22.501-115.173-2.129-6.764-4.177-13.42-6.198-19.968 13.662-0.566 27.109-1.347 40.259-2.317 1.105 3.503 2.156 6.979 3.288 10.536 13.851 43.951 28.133 89.411 24.091 130.722-3.288 34.169-31.070 67.072-63.219 74.887-4.931 1.213-9.809 1.805-14.579 1.805-8.569 0-16.842-1.913-24.495-5.605l10.86 26.355c1.994 4.797 1.994 10.159 0 14.956l-14.983 36.298c-3.045 7.33-10.159 12.099-18.109 12.099s-15.064-4.77-18.109-12.099l-15.037-36.298c-1.94-4.77-1.94-10.159 0-14.956l10.887-26.355c-7.707 3.692-15.953 5.605-24.522 5.605-4.797 0-9.647-0.593-14.579-1.832-32.121-7.815-59.877-40.717-63.245-74.86-3.934-41.364 10.402-86.797 24.226-130.749zM521.836 594.863l-9.863-23.821-9.809 23.821 9.809 23.795 9.863-23.795zM512.027 481.927c-234.388 0-417.981-60.227-417.981-137.135 0-1.32 0.108-2.668 0.243-4.015-0.296-1.051-0.323-2.183 0-3.261l17.408-68.985c0.216-0.943 0.755-1.832 1.482-2.56 12.908-38.131 102.589-69.363 241.421-83.914 0.243-0.027 0.458-0.027 0.458-0.027 1.752 0 3.368 0.593 4.581 1.671 1.374 1.24 2.129 2.991 2.129 4.851v22.393c0 3.288-2.452 6.063-5.713 6.467-31.609 4.069-61.656 9.324-89.546 15.764-91.055 16.438-111.535 34.088-111.535 38.966 0 19.887 152.172 84.884 357.026 84.884s356.972-64.997 356.972-84.884c0-4.877-20.48-22.528-111.805-39.020-27.648-6.36-57.64-11.641-89.304-15.683-3.261-0.431-5.686-3.18-5.686-6.467v-22.393c0-1.859 0.781-3.638 2.129-4.851 1.24-1.078 2.776-1.671 4.365-1.671 0.243 0 0.458 0 0.674 0.027 138.375 14.498 227.948 45.595 241.287 83.51 0.781 0.808 1.374 1.805 1.671 2.937l17.408 68.985c0.243 0.943 0.189 1.94-0.027 2.91 0.162 1.428 0.243 2.91 0.243 4.365 0.027 76.908-183.539 137.135-417.9 137.135zM403.456 381.952l-9.297 22.528 9.297 22.528 9.297-22.528-9.297-22.528zM512.027 381.952l-14.983 36.298 14.983 36.298 14.983-36.298-14.983-36.298zM620.571 381.952l-9.324 22.528 9.324 22.528 9.27-22.528-9.27-22.528z" />
<glyph unicode="&#xe61a;" d="M465.462 412.483c0-15.926 10.617-24.118 37.565-30.208v63.677c-26.947-2.452-37.565-15.522-37.565-33.469zM529.974 321.428v-70.656c26.947 4.5 39.613 20.83 39.613 36.352-0.027 18.378-12.665 27.352-39.613 34.304zM680.637 569.937l-63.623 63.353c0 0-31.394-9.27-69.228-13.393-13.474-2.264-23.66-1.428-35.786-1.428-11.507 0-21.046-0.835-34.035 1.832-33.873 4.312-58.664 12.989-58.664 12.989l-57.398-51.658c-30.477-17.785-57.587-40.717-80.034-67.773-43.277-52.17-69.282-119.269-69.282-192.485 0-166.157 134.063-271.333 299.439-271.333 165.376 0 299.439 105.176 299.439 271.333-0.027 103.316-51.901 194.398-130.829 248.563zM529.974 208.303v-43.924h-26.947v43.924c-53.895 3.261-77.959 19.187-99.193 42.442l28.591 36.756c15.495-16.734 43.655-31.852 70.602-36.352v78.821c-53.895 10.617-86.555 25.708-86.555 79.198 0 41.634 32.66 74.294 86.555 78.794v53.679h26.947v-54.029c26.947-3.692 59.635-16.33 80.869-36.756l-26.732-35.517c-15.522 15.117-27.19 24.495-54.137 28.591v-70.198c26.947-11.453 88.199-27.379 88.199-82.082 0-41.715-34.304-78.013-88.199-83.348zM417.064 686.323c0 0 40.071-18.27 97.226-18.27s99.355 18.27 99.355 18.27 25.735 25.789 45.945 61.709 12.396 68.689 12.396 68.689-31.205 4.904-50.149-1.293c-18.944-6.198-47.885-30.828-47.885-30.828s-15.98 36.083-25.95 49.125-28.861 37.807-28.861 37.807-21.342-31.124-27.352-39.936c-6.036-8.812-21.8-46.996-21.8-46.996s-29.346 23.444-51.712 29.777c-22.393 6.333-61.683 2.344-61.683 2.344s-0.081-30.828 13.312-59.715 47.158-70.683 47.158-70.683z" />
<glyph unicode="&#xe61b;" d="M512 972.8c-282.761 0-512-229.239-512-512s229.239-512 512-512 512 229.239 512 512c0 282.761-229.239 512-512 512zM723.183 309.965l-60.348-60.348-150.835 150.835-150.835-150.835-60.348 60.348 150.835 150.835-150.835 150.835 60.348 60.348 150.835-150.835 150.835 150.835 60.348-60.348-150.835-150.835 150.835-150.835z" />
<glyph unicode="&#xe61c;" d="M512 972.8c-282.778 0-512-229.222-512-512s229.222-512 512-512 512 229.222 512 512-229.222 512-512 512zM463.206 102.4c-35.072 0-71.27 29.798-71.27 65.741 0 36.915 36.198 65.741 71.27 65.741 33.946 0 69.018-28.774 69.018-65.741 0.051-35.942-35.021-65.741-69.018-65.741zM559.667 462.848c-72.346-52.378-82.176-48.282-82.176-128.358h-27.443c-16.435 99.584-17.51 134.502 17.562 187.955 16.435 23.603 67.942 72.909 89.907 84.173 24.115 12.339 65.741 58.573 65.741 96.563 0 61.594-64.666 93.44-123.853 93.44-55.859 0-109.568-36.966-109.568-48.282 0-13.363 14.234-15.411 28.518-22.63 14.234-6.144 27.392-16.435 27.392-44.134 0-31.846-22.989-48.282-55.859-48.282-41.728 0-57.088 27.75-57.088 62.669 0 65.741 80.026 123.238 169.882 123.238 103.014 0 188.518-67.789 188.518-167.373 0-90.368-62.515-138.65-131.533-188.979z" />
<glyph unicode="&#xe61d;" d="M917.811 863.283h-810.189v-810.189h810.138v810.189zM723.405 526.080c-8.704-20.89-21.76-40.346-37.837-56.218-15.974-15.923-35.533-28.877-56.525-37.53-20.941-8.602-43.981-13.158-66.714-13.158h-104.397l-0.819-206.029c0.102-2.867 0.41-4.352 2.355-6.861h40.755c14.131 0 25.6-11.469 25.6-25.6s-11.469-25.6-25.6-25.6h-36.506c-1.075 0-2.048 0-2.97 0h-52.275c-1.075 0-2.048 0.051-3.072 0.154l-47.514-0.102c-1.485-0.051-2.867-0.102-3.994-0.102-1.024 0-1.843 0-2.56 0h-35.226c-14.131 0-25.6 11.469-25.6 25.6s11.418 25.6 25.549 25.6l36.966 0.051c1.587 0.102 4.25 0.307 4.25 0.307 0.41 1.075 0.41 4.198 0.41 6.451v494.592c0.051 5.069-0.358 6.349-0.461 6.605-0.922 0.307-3.789 0.358-6.042 0.358h-35.072c-14.131 0-25.6 11.469-25.6 25.6s11.469 25.6 25.6 25.6h34.56c0.102 0 0.154 0 0.256 0h211.405c23.91-0.307 46.234-4.762 66.714-13.158 20.941-8.602 40.55-21.606 56.525-37.478 16.077-15.974 29.184-35.379 37.888-56.269 8.704-20.89 13.312-43.827 13.312-66.355-0.051-22.63-4.608-45.568-13.363-66.458zM0 972.8v-1025.434h1025.434v1025.434h-1025.434zM969.011 1.894h-912.589v912.589h912.538v-912.589zM584.448 706.56c-8.397 4.506-17.459 7.373-25.242 7.936-1.178 0.051-2.406 0.102-3.584 0.102h-97.587v-244.224h98.458c10.906 1.075 20.634 3.994 29.030 8.704 8.704 4.915 17.562 13.517 25.651 24.934 8.038 11.366 14.387 24.934 18.842 40.346 4.557 15.667 6.81 32.205 6.707 49.101-0.205 23.962-4.966 58.88-26.573 88.934-7.885 10.854-17.050 19.507-25.702 24.166z" />
<glyph unicode="&#xe61e;" d="M914.739 806.912h-168.038c0.307 1.587 0.614 3.174 0.614 4.813v130.509c0 16.896-17.459 30.566-38.963 30.566h-392.704c-21.504 0-38.963-13.67-38.963-30.566v-130.509c0-1.638 0.307-3.226 0.614-4.813h-168.038c-15.36 0-27.802-12.442-27.802-27.802v-77.568c0-15.36 12.442-27.802 27.802-27.802h28.16v-724.941h749.158v724.941h28.16c15.36 0 27.802 12.442 27.802 27.802v77.517c0 15.411-12.442 27.853-27.802 27.853zM415.078 867.072h193.894v-56.013h-193.894v56.013zM331.162 113.766h-56.013v503.962h56.013v-503.962zM540.006 113.766h-56.013v503.962h56.013v-503.962zM748.851 113.766h-56.013v503.962h56.013v-503.962z" />
<glyph unicode="&#xe61f;" d="M902.042-51.2l-246.426 246.477c-59.597-33.178-128.154-52.019-201.114-52.019-229.069 0-414.771 185.702-414.771 414.771s185.651 414.771 414.72 414.771c229.069 0 414.771-185.702 414.771-414.771 0-106.65-40.243-203.827-106.394-277.35l235.571-235.52-96.358-96.358zM454.451 280.986c152.934 0 276.992 124.109 276.992 277.043s-124.006 276.992-276.992 276.992c-152.986 0-276.941-124.058-276.941-276.992 0-152.934 123.955-277.043 276.941-277.043z" />
<glyph unicode="&#xe620;" d="M1024 918.63l-54.118 54.17-457.882-457.882-457.882 457.882-54.118-54.17 457.882-457.83-457.882-457.83 54.118-54.17 457.882 457.882 457.882-457.882 54.118 54.17-457.882 457.83z" />
<glyph unicode="&#xe621;" d="M1002.991 315.091l-3.171 1.288c-0.264 0.099-0.462 0.099-0.462 0.099l-0.033 0.099-92.689 37.194-37.888 170.876h-0.066c-0.165 0.925-0.264 1.718-0.462 2.676-22.594 116.67-87.271 134.276-113.664 135.333l-714.554 1.685c-12.552 0-22.726-10.174-22.726-22.693v-251.508l-0.76-3.039 0.793-274.201h98.634c9.678 53.215 56.287 93.713 112.244 93.713s102.565-40.531 112.244-93.713l249.988 0.066 90.31-0.529c9.48 53.446 56.188 94.208 112.31 94.208 56.584 0 103.556-41.422 112.508-95.529l71.085-0.429h24.543c4.063 1.024 5.847 5.549 6.309 7.201v191.422c-0.33 2.874-2.477 4.691-4.492 5.781zM862.406 353.672h-178.242v165.393h149.57l32.008-165.293-3.336-0.099zM793.071 177.28c-46.84 0-84.827-37.987-84.827-84.827s37.954-84.794 84.827-84.794c46.84 0 84.794 37.987 84.794 84.794 0 46.84-37.954 84.827-84.794 84.827zM793.071 37.025c-30.588 0-55.461 24.873-55.461 55.428 0 30.588 24.873 55.461 55.461 55.461 30.555 0 55.428-24.873 55.428-55.461 0-30.555-24.873-55.428-55.428-55.428zM228.187 177.28c-46.84 0-84.827-37.987-84.827-84.827s37.954-84.794 84.827-84.794c46.84 0 84.794 37.987 84.794 84.794 0 46.84-37.954 84.827-84.794 84.827zM228.187 37.025c-30.588 0-55.461 24.873-55.461 55.428 0 30.588 24.873 55.461 55.461 55.461 30.555 0 55.428-24.873 55.428-55.461 0.033-30.555-24.84-55.428-55.428-55.428z" />
<glyph unicode="&#xe622;" d="M16.516 434.25v-429.419h313.113v224.322h364.742v-224.322h313.113v429.419zM362.298 200.679h297.29v-33.032h-297.29v33.032zM362.298 148.191h297.29v-33.032h-297.29v33.032zM362.298 95.703h297.29v-33.032h-297.29v33.032zM362.298 43.214h297.29v-33.032h-297.29v33.032zM693.446 692.596h-362.892l-313.641-216.659v-3.27c0.429-2.015 2.147-2.907 2.907-3.171l-0.132-0.066h984.328c0.727 0.264 2.577 1.156 3.039 3.27v3.27l-313.608 216.626z" />
<glyph unicode="&#xe623;" d="M589.229 645.995c0-10.339-1.85-23.981-5.483-41.026-3.667-17.012-8.258-36.996-13.807-59.921-5.252-21.669-11.297-48.69-18.135-81.094-6.772-32.405-13.973-72.407-21.537-120.039h-29.101c-7.564 48.128-14.765 88.196-21.57 120.204s-12.85 58.83-18.135 80.533c-4.79 19.885-9.183 39.374-13.213 58.401-4.063 19.027-6.045 33.297-6.045 42.909 0 19.39 7.168 35.972 21.537 49.714 14.369 13.741 31.645 20.612 51.762 20.612 19.918 0 37.194-6.871 51.795-20.612 14.6-13.708 21.933-30.291 21.933-49.681zM588.47 228.269c0-19.159-7.267-35.609-21.735-49.317-14.501-13.741-31.414-20.612-50.837-20.612-19.654 0-36.732 6.871-51.233 20.612-14.501 13.741-21.735 30.158-21.735 49.317 0 19.159 7.267 35.708 21.735 49.714 14.501 13.973 31.579 20.975 51.233 20.975 19.423 0 36.335-7.003 50.837-20.975 14.468-14.006 21.735-30.588 21.735-49.714zM512 857.501c225.809 0 409.501-183.692 409.501-409.501s-183.692-409.501-409.501-409.501-409.501 183.692-409.501 409.501 183.692 409.501 409.501 409.501zM512 943.484c-273.639 0-495.484-221.845-495.484-495.484s221.845-495.484 495.484-495.484c273.639 0 495.484 221.845 495.484 495.484 0 273.639-221.845 495.484-495.484 495.484v0z" />
<glyph unicode="&#xe624;" d="M968.539 640.875c-24.972 58.996-60.68 111.979-106.166 157.498s-98.469 81.193-157.498 106.166c-61.11 25.831-126.018 38.945-192.875 38.945s-131.766-13.114-192.875-38.945c-58.996-24.972-111.979-60.68-157.498-106.166s-81.226-98.469-106.166-157.498c-25.831-61.11-38.945-126.018-38.945-192.875s13.114-131.766 38.945-192.875c24.972-58.996 60.68-111.979 106.166-157.498s98.469-81.193 157.498-106.166c61.11-25.831 126.018-38.945 192.875-38.945s131.766 13.114 192.875 38.945c58.996 24.972 111.979 60.68 157.465 106.166s81.226 98.469 106.166 157.498c25.864 61.11 38.978 126.018 38.978 192.875s-13.114 131.766-38.945 192.875zM512 42.133c-108.412 0-210.349 42.215-286.984 118.883-76.668 76.635-118.883 178.572-118.883 286.984 0 93.151 31.348 181.413 88.758 253.060 302.41-302.179 451.221-448.116 522.769-517.219 21.108-20.381 38.119-36.633 51.894-49.548-72.44-59.689-162.486-92.16-257.553-92.16zM831.851 198.639c-49.747 46.807-189.077 181.512-573.737 565.909 71.812 57.773 160.405 89.319 253.886 89.319 108.412 0 210.349-42.215 286.984-118.883 76.668-76.668 118.883-178.572 118.883-286.984 0-91.598-30.423-178.374-86.016-249.361z" />
<glyph unicode="&#xe625;" d="M764.032 959.968l32.928-34.72-500.64-475.072 500.736-479.648-33.12-34.56-536.992 514.368z" />
<glyph unicode="&#xe626;" d="M259.968-64.032l-32.928 34.72 500.64 475.040-500.736 479.68 33.12 34.56 536.992-514.368z" />
<glyph unicode="&#xe627;" d="M992 390.4l-473.6 441.6-486.4-441.6h153.6v-326.4h246.4l3.2 252.8h153.6v-252.8h249.6v326.4z" />
<glyph unicode="&#xe628;" d="M301.952 282.4v32l131.008 176.992c3.328 13.344 10.656 24.512 22.016 33.504s24.32 13.504 39.008 13.504c14.016 0 26.656-4.16 38.016-12.512s19.008-19.168 23.008-32.512l195.008-243.008v-32h-32l-224.992 180.992-159.008-116.992h-32.064zM822.656 141.824c-75.968-72.448-178.784-116.992-291.808-116.992-233.312 0.032-432.576 189.856-432.576 423.168 0 233.312 189.728 423.136 413.728 423.136v1.088c128 0 244.8-53.024 322.24-138.112l-69.6-69.152 238.944-34.784-18.080 236.928-77.408-72.544c-93.632 102.368-227.648 165.44-377.536 165.44-282.784 0-511.872-229.216-511.872-512s229.312-512 512.096-512c141.408 0 269.472 57.344 362.144 150.016l-63.392 62.56c-2.272-2.272-4.576-4.512-6.88-6.752z" />
<glyph unicode="&#xe629;" d="M64.16 229.6l417.248-197.408v441.6l-417.248 176.64v-420.832zM192.192 486.688l160.832-74.784-0.928-58.944-160.8 74.752 0.896 58.976zM512 473.792v-441.6l415.808 197.408v420.832l-415.808-176.64zM494.496 863.808l-427.616-184.224 428-182.784 432.448 183.2-432.832 183.808z" />
<glyph unicode="&#xe62a;" d="M934.4 681.6l-80 48-128-12.8c0 9.6-3.2 22.4-6.4 35.2-3.2 12.8-9.6 28.8-16 41.6-6.4 12.8-12.8 28.8-22.4 41.6-9.6 12.8-19.2 25.6-32 38.4-9.6 9.6-22.4 16-32 22.4-9.6 6.4-22.4 9.6-35.2 16s-25.6 6.4-41.6 6.4c-12.8 0-28.8 0-44.8 0-19.2-3.2-35.2-6.4-51.2-12.8-16-6.4-32-12.8-44.8-22.4-12.8-9.6-25.6-22.4-35.2-32-9.6-12.8-22.4-25.6-28.8-44.8-6.4-9.6-9.6-19.2-12.8-32-6.4-12.8-9.6-25.6-12.8-35.2-3.2-9.6-3.2-22.4-6.4-32 0-9.6-3.2-19.2-3.2-28.8l-185.6-22.4-48-547.2 156.8-131.2 732.8 156.8-22.4 547.2zM364.8 710.4c0 9.6 3.2 19.2 6.4 28.8 3.2 9.6 6.4 19.2 9.6 32 3.2 9.6 9.6 19.2 16 28.8 6.4 9.6 12.8 16 19.2 22.4 6.4 6.4 16 12.8 22.4 16 9.6 6.4 19.2 9.6 28.8 12.8 9.6 3.2 22.4 6.4 32 6.4 12.8 0 22.4 0 32 0 9.6 0 19.2-3.2 28.8-3.2 9.6-3.2 19.2-6.4 25.6-9.6 6.4-3.2 16-9.6 22.4-16 9.6-9.6 16-19.2 22.4-28.8 6.4-9.6 12.8-22.4 16-32 3.2-9.6 6.4-22.4 9.6-32 3.2-9.6 6.4-19.2 6.4-28.8l-307.2-28.8c6.4 12.8 9.6 22.4 9.6 32zM544 230.4v-89.6l-179.2 153.6 179.2 153.6v-99.2c32 0 140.8 3.2 140.8 108.8 0 57.6-41.6 102.4-92.8 115.2 86.4-12.8 150.4-83.2 150.4-172.8 3.2-163.2-166.4-169.6-198.4-169.6z" />
<glyph unicode="&#xe62b;" d="M535.104 260.384c-14.592 13.824-31.616 24.448-50.208 31.072l-38.976 151.776 464.192 129.856 49.728-193.792-424.736-118.912zM387.328 671.392l309.472 86.56 49.76-193.856-309.44-86.56-49.792 193.856zM401.216 294.368c-8.64-2.432-16.672-5.888-24.48-9.696l-136.448 531.68h-51.328c-5.152-11.232-15.936-19.136-28.672-19.136h-64.064c-17.696 0-32.032 15.008-32.032 33.472s14.336 33.44 32.032 33.44h64.064c10.752 0 19.776-5.888 25.6-14.304h98.56v-1.632l1.472 0.448 141.12-549.856c-8.608-0.8-17.216-2.048-25.824-4.416zM409.504 262.048c59.808 16.736 121.28-20.32 137.312-82.816 16.032-62.432-19.456-126.624-79.296-143.36-59.808-16.672-121.28 20.384-137.312 82.816s19.488 126.624 79.296 143.36zM392.64 133.952c6.848-26.752 33.216-42.624 58.848-35.424s40.832 34.688 33.984 61.44c-6.848 26.752-33.216 42.624-58.848 35.488-25.664-7.2-40.864-34.72-33.984-61.504zM955.84 265.568l-373.888-104.576c-0.672 8.928-1.92 17.952-4.224 26.944-2.272 8.992-5.568 17.44-9.248 25.568l371.936 104 15.424-51.936z" />
<glyph unicode="&#xe62c;" d="M896 736l-480.128-0.544 0.128 94.56-256 1.984v-96h-64c-35.328 0-64-28.672-64-64v-544c0-35.328 28.672-64 64-64h800c35.328 0 64 28.672 64 64v544c0 35.328-28.672 64-64 64zM224 768h128v-96h-128v96zM384 161.344c-123.712 0-224 100.288-224 224s100.288 224 224 224c123.68 0 224-100.288 224-224 0-123.712-100.32-224-224-224zM816 527.328c-35.36 0-64 28.64-64 64 0 35.328 28.64 64 64 64 35.328 0 64-28.672 64-64 0-35.328-28.672-64-64-64zM384 524c-79.52 0-144-64.48-144-144s64.48-144 144-144 144 64.48 144 144-64.48 144-144 144z" />
<glyph unicode="&#xe62d;" d="M737.952 529.888c0 0 37.504 28.512 8.992 57.024-28.576 28.512-56.32-8.288-56.32-8.288l-223.008-223.040c0 0-67.296-86.752-118.272-34.24s34.24 118.272 34.24 118.272l312.288 312.32c0 0 87.808 96.736 170.304 14.24 82.496-82.528-14.496-170.528-14.496-170.528l-422.816-422.848c0 0-135.296-156.288-260.576-31.008s32.512 259.040 32.512 259.040l321.088 321.088c0 0 36 30.016 8.992 57.024s-56.992-8.992-56.992-8.992l-368.32-368.352c0 0-139.040-152.544 16.256-307.776 155.296-155.296 307.808-16.288 307.808-16.288l506.304 506.336c0 0 101.248 111.776-19.488 232.576s-232.576 19.488-232.576 19.488l-371.52-371.552c0 0-111.68-90.688-10.4-191.936 101.28-101.28 190.432 11.904 190.432 11.904l245.568 245.536z" />
<glyph unicode="&#xe62e;" d="M897.728 365.728c0-221.856-179.84-401.728-401.728-401.728-221.856 0-401.728 179.872-401.728 401.728 0 215.104 169.152 390.144 381.664 400.672v69.312h-30.112c-17.76 0-32.16 14.4-32.16 32.16s14.4 32.128 32.16 32.128h96.384c17.76 0 32.16-14.368 32.16-32.128s-14.4-32.16-32.16-32.16h-34.112v-68.896c216.224-6.4 389.632-183.328 389.632-401.088zM475.936 642.912v73.312c-99.488-5.632-187.712-52.48-248.512-123.456l52.896-52.896-22.72-22.752-50.080 50.112c-40.768-57.536-65.024-127.584-65.024-203.488 0-3.392 0.48-8.032 0.48-8.032h77.824v-32.16h-75.52c7.808-65.664 33.824-127.584 72.576-177.088l39.776 39.776 22.72-22.72-41.472-41.504c60.128-63.872 143.616-105.504 237.056-110.784v87.328h32.128v-87.744c95.648 3.264 181.44 44.576 243.168 109.12l-45.568 45.568 22.72 22.72 44.064-44.032c39.68 49.92 66.368 112.672 74.304 179.328h-81.6v32.16h83.872c0.096 3.328 0.512 4.64 0.512 8.032 0 78.016-25.6 149.792-68.416 208.16l-52.736-52.736-22.72 22.72 55.232 55.2c-62.304 70.496-152.096 116.192-252.8 119.584v-73.728h-32.16zM510.048 355.68h112.512c8.864 0 16.064-7.232 16.064-16.064 0-8.864-7.2-16.096-16.064-16.096h-128.576c-8.864 0-16.064 7.232-16.064 16.096v222.944c0 8.864 7.2 16.064 16.064 16.064s16.064-7.2 16.064-16.064v-206.88z" />
<glyph unicode="&#xe62f;" d="M256 896h512v-128h-512zM960 704h-896c-35.2 0-64-28.8-64-64v-320c0-35.2 28.796-64 64-64h192v-256h512v256h192c35.2 0 64 28.8 64 64v320c0 35.2-28.8 64-64 64zM704 64h-384v320h384v-320zM974.4 608c0-25.626-20.774-46.4-46.398-46.4-25.626 0-46.402 20.774-46.402 46.4s20.776 46.4 46.402 46.4c25.626 0 46.398-20.774 46.398-46.4z" />
<glyph unicode="&#xe630;" d="M55.52 389.376l385.728-194.592 68.864 194.592-385.696 184.256-68.896-184.256zM518.752 389.376l65.44-192.864 399.488 194.592-77.504 182.528-387.424-184.256zM-7.904 729.216l132.608-154.976 385.696 196.288-125.696 160.16-392.608-201.472zM1031.904 725.792l-384.032 204.896-130.88-160.16 389.184-196.288 125.728 151.552zM101.6 340.704l-1.312-186.848 406.816-188.576v351.36l-58.112-151.552-347.392 175.616zM521.312 316.64v-351.328l405.568 188.576v185.568l-351.68-174.72-53.888 151.904z" />
<glyph unicode="&#xe631;" d="M0 596.429l453.325-562.637-181.811 562.637zM360.806 596.429l160.563-563.814 138.138 563.814h-298.701zM587.622 33.792l436.378 562.637h-269.414l-166.963-562.637zM1024 652.442l-130.816 223.693-130.918-223.693zM835.584 888.986h-261.734l130.867-231.424zM638.618 652.442l-130.867 223.693-130.867-223.693zM450.202 888.986h-261.683l130.867-231.424 130.816 231.424zM130.816 876.134l-130.816-223.693h261.734l-130.918 223.693z" />
<glyph unicode="&#xe632;" d="M921.6 819.2h-819.2c-56.32 0-102.4-46.080-102.4-102.4v-512c0-56.32 46.080-102.4 102.4-102.4h819.2c56.32 0 102.4 46.080 102.4 102.4v512c0 56.32-46.080 102.4-102.4 102.4zM921.6 204.8h-819.2v307.2h819.2v-307.2zM921.6 665.6h-819.2v51.2h819.2v-51.2zM204.8 404.48v-30.72h30.72v30.72h-30.72zM389.12 343.040v-30.72h61.44v30.72h30.72v30.72h30.72v30.72h-61.44v-30.72h-30.72v-30.72h-30.72zM512 312.32v30.72h-30.72v-30.72h30.72zM358.4 312.32v30.72h-61.44v-30.72h61.44zM389.12 373.76h30.72v30.72h-61.44v-61.44h30.72v30.72zM266.24 343.040h30.72v30.72h30.72v30.72h-61.44v-30.72h-30.72v-30.72h-30.72v-30.72h61.44v30.72z" />
<glyph unicode="&#xe633;" d="M563.714 133.403h-105.594v-54.978l-105.594-17.599v-35.198h314.597v33.015l-103.412 19.781v54.978zM915.691 870.373h-809.548c-38.893 0-70.396-31.502-70.396-70.396v-492.769c0-38.858 31.502-70.396 70.396-70.396h809.548c38.893 0 70.396 31.538 70.396 70.396v492.769c0 38.893-31.502 70.396-70.396 70.396zM506.518 289.61c-19.429 0-35.198 15.768-35.198 35.198 0 19.464 15.768 35.198 35.198 35.198 19.464 0 35.198-15.733 35.198-35.198 0-19.429-15.768-35.198-35.198-35.198zM915.691 412.802h-809.548v387.175h809.548v-387.175z" />
<glyph unicode="&#xe634;" d="M427.418 64.717l53.504 183.45c-33.69 12.646-57.702 45.005-57.702 83.098 0 49.050 39.782 88.781 88.832 88.781s88.781-39.782 88.781-88.781c0-38.093-24.013-70.502-57.754-83.098l53.504-183.45h-169.165zM822.835 676.762c0 162.816-133.222 296.038-296.038 296.038h-29.594c-162.816 0-296.038-133.222-296.038-296.038v-146.432c-41.882-6.451-73.984-42.547-73.984-86.272v-407.91c0-48.23 39.117-87.347 87.347-87.347h594.944c48.282 0 87.398 39.117 87.398 87.398v407.91c-0.051 43.674-32.154 85.658-74.035 92.109h-517.222v135.987c0 109.005 88.678 197.683 197.632 197.683h17.459c1.024 0 2.048-0.051 3.123-0.102 3.994-0.051 7.987-0.307 11.93-0.563 101.99-7.731 182.63-88.525 182.63-192.461h104.448z" />
<glyph unicode="&#xe635;" d="M115.766 833.93c0 29.66 0 59.29 0 88.95 264.166 0 528.302 0 792.467 0 0-29.66 0-59.29 0-88.95-1.415-1.502-2.974-2.917-4.246-4.534-99.896-128.343-199.734-256.715-299.688-384.97-3.177-4.072-4.418-8.028-4.418-13.112 0.116-141.31 0.086-282.619 0.086-423.93 0-2.888-0.116-5.776-0.173-8.664-0.375 0-0.78 0-1.155 0-1.906 1.184-3.726 2.541-5.718 3.524-54.122 27.089-108.242 54.208-162.478 81.095-4.707 2.339-6.556 4.881-6.527 10.339 0.173 112.979 0.173 225.957 0 338.935 0 3.35-1.069 7.364-3.061 9.935-99.608 128.285-199.33 256.426-299.081 384.566-1.849 2.397-3.985 4.563-6.007 6.815z" />
</font>
</defs>
</svg>
